<?xml version="1.0" encoding="UTF-8"?>
<svg version="1.1" xmlns="http://www.w3.org/2000/svg" width="736" height="736">
<path d="M0 0 C242.88 0 485.76 0 736 0 C736 242.88 736 485.76 736 736 C493.12 736 250.24 736 0 736 C0 493.12 0 250.24 0 0 Z " fill="#070707" transform="translate(0,0)"/>
<path d="M0 0 C3.85808588 0.94099656 5.39283597 3.5209084 7.5625 6.625 C8.07167969 7.30175781 8.58085938 7.97851562 9.10546875 8.67578125 C12.46526441 13.346312 14.38158381 17.60281429 15.859375 23.14453125 C17.39121928 28.54853745 19.59195063 33.36456212 22.9296875 37.875 C25.70496189 41.68449055 27.77055276 45.70045947 29.8125 49.9375 C30.163125 50.65228516 30.51375 51.36707031 30.875 52.10351562 C31.7758358 53.94156712 32.6696817 55.78304074 33.5625 57.625 C33.8925 58.285 34.2225 58.945 34.5625 59.625 C34.84960469 63.77112956 34.68227209 67.83150992 34.0625 71.9375 C32.89046926 80.58122672 33.35971573 88.26475235 35.80859375 96.640625 C37.86827842 104.79398813 37.95382294 113.26170082 38.3125 121.625 C38.38082031 122.85734375 38.44914062 124.0896875 38.51953125 125.359375 C38.92220056 134.98213898 37.24181107 140.73125216 32.6875 149.1875 C29.48492654 155.48194068 27.29429131 161.93417845 25.18457031 168.66210938 C24.12130231 172.01716227 22.99466028 175.35093726 21.875 178.6875 C21.47925781 179.87472656 21.08351563 181.06195313 20.67578125 182.28515625 C20.12470703 183.93837891 20.12470703 183.93837891 19.5625 185.625 C19.2634375 186.67171875 18.964375 187.7184375 18.65625 188.796875 C17.45176702 191.91132384 16.10960577 193.47996428 13.75 195.8125 C6.35560005 203.90347386 4.0153309 212.43083064 2.7253418 223.07983398 C2.09792699 227.83926097 0.86108282 231.44089391 -1.4230957 235.65795898 C-3.05914277 238.83043341 -4.09981239 242.19127462 -5.25 245.5625 C-7.33817582 251.43118079 -9.72594555 255.87316162 -13.84765625 260.6171875 C-16.00848748 263.34609967 -17.12232626 266.24977161 -18.4140625 269.45703125 C-19.49443974 271.74561662 -20.76663538 273.42781745 -22.375 275.375 C-27.06166308 281.28997426 -30.4375 289.05920879 -30.4375 296.625 C-26.57639307 297.06366449 -26.57639307 297.06366449 -24.796875 295.19140625 C-24.26578125 294.53011719 -23.7346875 293.86882812 -23.1875 293.1875 C-22.58550781 292.46175781 -21.98351562 291.73601562 -21.36328125 290.98828125 C-20.72777344 290.20839844 -20.09226562 289.42851562 -19.4375 288.625 C-18.09428372 287.03236638 -16.74010297 285.44891413 -15.375 283.875 C-14.46041016 282.79992187 -14.46041016 282.79992187 -13.52734375 281.703125 C-11.4375 279.625 -11.4375 279.625 -8.44140625 277.80859375 C-4.85158153 275.19908527 -3.2964437 272.34215726 -1.4375 268.4375 C-0.75624661 267.08279756 -0.07135341 265.72991931 0.6171875 264.37890625 C0.94686523 263.72937988 1.27654297 263.07985352 1.61621094 262.41064453 C3.2171407 259.38969502 5.15961218 256.63347618 7.109375 253.83203125 C9.89284464 249.60444967 12.20403123 245.09939998 14.5625 240.625 C15.2225 240.625 15.8825 240.625 16.5625 240.625 C16.73265625 239.82835937 16.9028125 239.03171875 17.078125 238.2109375 C18.47346192 232.11004949 19.96853994 227.79131759 23.5625 222.625 C24.43822738 220.16123111 25.14499377 217.67834666 25.84765625 215.16015625 C28.53562073 205.62742976 28.53562073 205.62742976 31.0390625 203.18359375 C32.89252422 201.28735983 33.52634464 199.60850311 34.4375 197.125 C37.80011484 188.33634758 41.85256934 179.92226972 46.1328125 171.546875 C46.60460937 170.58265625 47.07640625 169.6184375 47.5625 168.625 C48.10777344 167.64273438 48.65304687 166.66046875 49.21484375 165.6484375 C52.0482873 158.94653604 50.99831199 150.805116 51.00195312 143.67578125 C51.02999023 141.85240234 51.02999023 141.85240234 51.05859375 139.9921875 C51.06044678 138.88987793 51.0622998 137.78756836 51.06420898 136.65185547 C51.67707473 132.92901887 52.8930795 131.25195313 55.5625 128.625 C58.6875 128.1875 58.6875 128.1875 61.5625 128.625 C64.92888568 131.99138568 63.90049953 136.6403489 63.93359375 141.18554688 C63.93343262 141.88542725 63.93327148 142.58530762 63.93310547 143.30639648 C63.93740616 145.39199083 63.97349447 147.47533792 64.01171875 149.56054688 C64.07660881 157.48682623 63.17239523 164.39146899 60.4609375 171.9230957 C59.63797412 174.3980239 59.2829307 176.41079753 59.1875 179 C58.82241744 183.983377 56.79377509 188.28829236 54.85375977 192.82446289 C53.10363566 196.99960237 51.96443774 200.96577819 51.125 205.4375 C49.5912692 212.8949216 45.67576306 217.91634331 40.8671875 223.64453125 C39.38301285 225.89745505 39.23664598 227.08628803 39.1875 229.75 C38.71160899 235.45136096 36.36738304 239.71645468 33.5625 244.625 C33.08296875 245.47449219 32.6034375 246.32398438 32.109375 247.19921875 C28.08899692 254.10792108 23.69124043 261.37179392 17.5625 266.625 C16.9025 266.625 16.2425 266.625 15.5625 266.625 C15.253125 267.615 15.253125 267.615 14.9375 268.625 C12.37576129 274.2142481 8.55235322 278.7720771 4.125 283 C0.62048724 286.38127714 -1.97319029 290.14377 -4.703125 294.16015625 C-7.34259438 297.91129404 -10.35175733 301.23967066 -13.4375 304.625 C-14.72720703 306.10419922 -14.72720703 306.10419922 -16.04296875 307.61328125 C-22.1302675 314.54134363 -27.59837593 319.41057475 -36.03125 323.26953125 C-44.84984373 327.36414638 -51.42205741 331.86542676 -58.359375 338.6640625 C-65.74123261 345.89232535 -74.02052466 351.05162697 -83.15625 355.75 C-86.6749381 357.76067891 -89.72380405 360.0328549 -92.875 362.5625 C-107.30296504 374.05751025 -123.13124056 380.85959767 -141.22265625 384.16162109 C-150.26058949 385.85797701 -157.87478478 388.96200762 -165.6875 393.8125 C-169.82519875 396.37237375 -173.62943997 397.86454153 -178.4375 398.625 C-179.94570313 398.88216797 -179.94570313 398.88216797 -181.484375 399.14453125 C-189.34073155 400.37986333 -197.10412443 400.96946461 -205.0390625 401.28125 C-208.10540274 401.59140855 -209.86708635 402.00707466 -212.4375 403.625 C-212.4375 404.945 -212.4375 406.265 -212.4375 407.625 C-208.00654064 409.84047968 -201.98873413 408.85509725 -197.125 408.875 C-195.90748047 408.895625 -194.68996094 408.91625 -193.43554688 408.9375 C-184.79941109 408.97422998 -175.21677911 408.72159172 -167.41943359 404.54370117 C-164.83080512 403.34377398 -162.74131235 403.3526152 -159.89453125 403.31640625 C-158.28288086 403.27870117 -158.28288086 403.27870117 -156.63867188 403.24023438 C-154.39914169 403.2053829 -152.15955335 403.17406928 -149.91992188 403.14648438 C-142.33660755 402.96108432 -136.38005621 401.72620368 -129.43383789 398.77319336 C-124.23338755 396.64057925 -119.77748936 396.27332243 -114.1875 396.25 C-107.06101415 396.06109519 -101.46207716 395.0862014 -94.98046875 391.87890625 C-90.64592238 389.74159537 -86.60677372 388.34109582 -81.75 388.375 C-81.00363281 388.36984375 -80.25726563 388.3646875 -79.48828125 388.359375 C-77.4375 388.625 -77.4375 388.625 -74.4375 390.625 C-74.4375 393.73918045 -74.86416593 395.90511144 -76.828125 398.37109375 C-85.60080922 406.64616773 -97.5151159 411.22994011 -109.4375 411.9375 C-115.04046187 412.35655809 -120.0724888 413.97708659 -125.35961914 415.74829102 C-130.86682047 417.55374736 -136.29857898 418.55887472 -142.05859375 419.265625 C-144.38702011 419.37666963 -144.38702011 419.37666963 -145.4375 420.625 C-147.01429226 420.78027592 -148.5969013 420.87730002 -150.1796875 420.94921875 C-164.45220752 421.57860021 -164.45220752 421.57860021 -177.27734375 427.35546875 C-180.80296153 429.42748643 -183.44459377 429.12411328 -187.4375 428.625 C-188.4275 428.295 -189.4175 427.965 -190.4375 427.625 C-192.48921195 427.55061769 -194.5411714 427.47950766 -196.59375 427.43505859 C-204.22458388 427.24459744 -209.55845321 426.60799885 -216.2265625 422.63671875 C-219.57810761 421.10306118 -222.23747004 421.63839924 -225.796875 422.21484375 C-234.93098175 423.63360294 -242.21039445 422.73855277 -250.4375 418.625 C-251.97797236 418.52192007 -253.52003094 418.44185624 -255.0625 418.375 C-260.50628727 417.84868868 -264.38514467 416.3426742 -268.4375 412.625 C-269.9193164 410.57592576 -271.16470938 408.53880726 -272.33203125 406.296875 C-273.4112833 404.29100394 -273.4112833 404.29100394 -276.4375 403.625 C-279.719458 403.42981748 -282.99485313 403.28115122 -286.28125 403.1953125 C-291.30695219 402.96858909 -294.95419625 401.94862905 -299.4375 399.625 C-302.36429124 395.89081808 -304.20379781 391.31257519 -304.6171875 386.55859375 C-305.27563489 380.8221203 -307.24951057 378.50072942 -311.75 374.875 C-312.69488281 374.17890625 -313.63976562 373.4828125 -314.61328125 372.765625 C-322.2220245 366.99855543 -322.2220245 366.99855543 -322.76342773 363.54736328 C-322.78650937 361.03639302 -322.66549201 358.56798841 -322.5 356.0625 C-322.21270185 347.70295331 -323.21806112 341.40242582 -326.4375 333.625 C-327.04286786 331.71517837 -327.62755749 329.79863023 -328.1875 327.875 C-328.42984375 327.05515625 -328.6721875 326.2353125 -328.921875 325.390625 C-329.09203125 324.80796875 -329.2621875 324.2253125 -329.4375 323.625 C-330.0975 323.625 -330.7575 323.625 -331.4375 323.625 C-335.29526217 331.39746548 -337.01511154 337.99960817 -337.19921875 346.69140625 C-337.4375 349.625 -337.4375 349.625 -339.4375 352.625 C-339.66532573 355.55133397 -339.66532573 355.55133397 -339.52734375 358.8671875 C-339.50736328 360.09824219 -339.48738281 361.32929688 -339.46679688 362.59765625 C-339.4057804 365.19150563 -339.34070044 367.78526272 -339.27148438 370.37890625 C-339.24344727 372.22935547 -339.24344727 372.22935547 -339.21484375 374.1171875 C-339.18640381 375.24495605 -339.15796387 376.37272461 -339.12866211 377.53466797 C-339.47571471 381.00738882 -340.53947804 382.74742312 -342.4375 385.625 C-343.99783967 398.62783058 -336.32170047 411.39402953 -329.5234375 421.89453125 C-327.96604934 424.37626849 -326.72451185 426.99501927 -325.4375 429.625 C-325.08429688 430.16769531 -324.73109375 430.71039062 -324.3671875 431.26953125 C-321.35864801 435.92961165 -321.04931614 439.09337993 -321.4375 444.625 C-324.57293015 446.19271508 -327.08122658 446.40380378 -330.4375 445.625 C-339.2395052 441.53170978 -342.16422684 434.58996806 -345.3894043 426.03857422 C-347.54920334 420.4034177 -350.12202993 415.79155262 -353.6875 410.9375 C-360.54767276 401.38640576 -363.93646329 389.4453962 -362.4375 377.625 C-361.98378586 375.62558175 -361.44935743 373.66654306 -360.88671875 371.6953125 C-359.82914528 366.82127824 -360.07291257 361.69482315 -360.93359375 356.80859375 C-362.60413716 346.25438538 -362.44938456 335.3147681 -356.8515625 325.98046875 C-354.99215189 321.56822091 -355.12321297 317.79276671 -355.125 313.0625 C-354.93717643 305.3168803 -353.79099195 299.74722391 -350.04296875 292.84765625 C-348.16802368 289.08408038 -347.11322235 285.34995948 -346 281.3125 C-344.39531825 275.77057781 -342.61288692 271.93606923 -338.46875 267.8828125 C-334.08473748 263.00981397 -330.96430258 257.0655984 -327.58642578 251.46972656 C-326.52624798 249.76749462 -325.38157538 248.11867214 -324.23046875 246.4765625 C-322.43201526 243.61627699 -321.65323401 241.40230836 -320.9375 238.125 C-319.07914403 230.8003097 -315.17936549 226.27347803 -310.22265625 220.76953125 C-308.42234394 218.60679283 -306.97595042 216.39288964 -305.5 214 C-301.87004664 208.37599227 -297.08195603 205.21235782 -291.41796875 201.8125 C-288.1749528 199.43230481 -286.7589226 197.39104109 -284.75 193.9375 C-281.18487365 188.30583207 -277.25255225 184.73200109 -271.984375 180.72265625 C-268.9582221 178.23025731 -266.91466405 175.52132822 -264.671875 172.33984375 C-260.7459498 166.88578944 -255.64858442 165.56370363 -249.49609375 163.61328125 C-240.03214333 160.55532537 -233.29132123 155.83597883 -225.8125 149.34765625 C-219.70503454 144.13375463 -213.99368455 140.3825731 -206.4375 137.625 C-205.6228125 137.31820312 -204.808125 137.01140625 -203.96875 136.6953125 C-197.32669034 134.54279317 -190.82293805 134.27767925 -183.90698242 134.0402832 C-178.23436237 133.81528946 -172.82460608 133.11375293 -167.25 132.0625 C-150.04290338 128.93854232 -136.36445784 130.28936421 -121.73583984 140.33666992 C-116.81444797 143.62736521 -111.92353107 145.18711762 -106.21875 146.765625 C-101.97375302 148.07728137 -100.31997468 149.16603038 -97.4375 152.625 C-95.40974258 156.50308606 -93.91309218 160.5093423 -92.4375 164.625 C-92.17904297 165.34526367 -91.92058594 166.06552734 -91.65429688 166.80761719 C-90.30635613 170.57579671 -88.9786388 174.35016687 -87.671875 178.1328125 C-86.58937503 181.42422523 -86.58937503 181.42422523 -85.4375 183.625 C-85.29496139 185.6938303 -85.21116797 187.76683626 -85.15625 189.83984375 C-85.11886719 191.08314453 -85.08148438 192.32644531 -85.04296875 193.60742188 C-85.00816406 194.91259766 -84.97335937 196.21777344 -84.9375 197.5625 C-84.86871677 200.13422846 -84.79598787 202.70585533 -84.71875 205.27734375 C-84.68845703 206.42195068 -84.65816406 207.56655762 -84.62695312 208.74584961 C-84.55496698 211.69469081 -84.55496698 211.69469081 -83.4375 214.625 C-82.50522019 222.48447283 -83.18978556 227.63331794 -88.02734375 233.98046875 C-88.80370756 234.8858681 -89.59414695 235.78164695 -90.4375 236.625 C-90.73834108 238.5998281 -91.00251147 240.58027882 -91.25 242.5625 C-92.8484983 253.16123874 -96.36931888 260.59023001 -103.4375 268.625 C-103.93765625 269.20765625 -104.4378125 269.7903125 -104.953125 270.390625 C-111.88089743 277.87821742 -120.99700063 283.41126256 -129.5 288.9375 C-132.90974626 291.17514598 -135.58415653 293.69849387 -138.4375 296.625 C-144.27596055 301.45641602 -149.27245653 304.24814544 -156.75 305.75 C-162.15500328 307.02489021 -166.54138738 309.12737871 -171.375 311.75 C-178.35272312 315.50665526 -184.42118707 316.84462501 -192.4375 316.625 C-192.4375 315.965 -192.4375 315.305 -192.4375 314.625 C-193.43910156 314.65980469 -194.44070313 314.69460938 -195.47265625 314.73046875 C-208.35560042 315.04606851 -208.35560042 315.04606851 -214.4375 311.625 C-215.654375 311.191875 -216.87125 310.75875 -218.125 310.3125 C-225.35732071 306.6281102 -227.03177445 298.87411107 -229.4375 291.625 C-229.85 290.47 -230.2625 289.315 -230.6875 288.125 C-232.22480219 280.95092309 -231.97952203 274.50341255 -229.4375 267.625 C-229.36014852 266.22991087 -229.29925444 264.83386347 -229.25 263.4375 C-228.77358186 258.27485982 -226.3678919 254.85623988 -223.421875 250.69140625 C-221.73323914 248.08199848 -220.51089102 245.64377202 -219.2265625 242.83203125 C-216.42995176 237.13414938 -212.60422576 233.117044 -208.0625 228.75 C-207.33289063 228.0178125 -206.60328125 227.285625 -205.8515625 226.53125 C-200.3383753 221.11651257 -195.19234735 216.22265582 -187.0625 216.125 C-183.11981174 215.91493874 -180.3418362 215.33333827 -176.8125 213.5625 C-171.53960947 210.99654792 -166.85139784 210.49308706 -161.234375 212.35546875 C-156.02886935 214.71722594 -153.34015503 217.75306788 -150.1953125 222.5 C-149.75960938 223.139375 -149.32390625 223.77875 -148.875 224.4375 C-148.48183594 225.04207031 -148.08867187 225.64664063 -147.68359375 226.26953125 C-147.27238281 226.71683594 -146.86117188 227.16414062 -146.4375 227.625 C-145.4475 227.625 -144.4575 227.625 -143.4375 227.625 C-141.05251978 223.97738319 -141.62118077 221.79225927 -142.4375 217.625 C-142.61667969 216.62339844 -142.79585938 215.62179687 -142.98046875 214.58984375 C-144.44048642 207.05401287 -144.44048642 207.05401287 -149.51953125 201.57421875 C-161.12298621 195.831572 -174.52222384 192.97254042 -187.4375 194.625 C-191.7299466 196.17519865 -195.49348823 198.35182456 -199.4375 200.625 C-201.49849679 201.54504144 -203.56099635 202.46172405 -205.625 203.375 C-211.17584727 206.1035049 -214.3115064 209.62447943 -218.19921875 214.34375 C-221.67472156 217.88597276 -225.68182106 219.42034787 -230.4375 220.625 C-231.0975 220.625 -231.7575 220.625 -232.4375 220.625 C-232.61925781 221.19347656 -232.80101562 221.76195312 -232.98828125 222.34765625 C-235.9104965 231.32410208 -239.08663057 237.64307166 -245.4375 244.625 C-249.7934145 249.51448977 -251.87781388 252.81073226 -252.16015625 259.40625 C-252.47351225 261.91309799 -253.24925105 263.44376307 -254.5 265.625 C-256.84141503 269.88211824 -257.21064749 273.84227365 -256.4375 278.625 C-256.10403564 279.23013428 -255.77057129 279.83526855 -255.42700195 280.45874023 C-254.28474674 282.95941392 -254.22540051 284.62690474 -254.26953125 287.36328125 C-254.26244141 288.26626953 -254.25535156 289.16925781 -254.24804688 290.09960938 C-254.24934097 291.97993268 -254.26993612 293.86034923 -254.31054688 295.74023438 C-254.27298317 301.03699066 -254.27298317 301.03699066 -251.92675781 305.63549805 C-250.69614292 306.80684317 -249.43557273 307.94757173 -248.14624023 309.05395508 C-245.72099536 311.28376659 -244.76263634 313.78078303 -243.5625 316.8125 C-241.67752696 321.08331676 -241.67752696 321.08331676 -238.203125 323.96875 C-236.6309618 324.52363113 -235.0514426 325.05816578 -233.46484375 325.5703125 C-230.74982722 326.98274884 -230.39485309 328.35004208 -229.375 331.1875 C-228.00108519 334.81941394 -227.69145688 335.46067496 -224.25 337.6875 C-217.95954389 339.45407971 -206.33796521 340.61936868 -200.47412109 337.62109375 C-198.1406429 336.47980976 -196.6067097 336.38533732 -194.0234375 336.38671875 C-193.18490234 336.37398926 -192.34636719 336.36125977 -191.48242188 336.34814453 C-190.60134766 336.33638184 -189.72027344 336.32461914 -188.8125 336.3125 C-181.88637772 336.10392647 -176.72640558 335.59551298 -170.72265625 331.87890625 C-167.97996129 330.3739403 -165.43214859 329.82647849 -162.375 329.1875 C-157.21556936 328.03289596 -153.81667307 326.15156251 -149.59765625 323.03515625 C-147.31381311 321.54425684 -145.29933382 320.81549987 -142.6875 320.0625 C-138.45153937 318.80197192 -136.39763803 316.97462988 -133.4375 313.625 C-129.99385738 310.23262749 -127.07600436 307.64923597 -122.375 306.3125 C-117.79020453 304.83125839 -116.32913492 301.9053106 -113.93359375 297.90625 C-111.02377313 293.46934336 -106.96762386 290.58696795 -102.5234375 287.79296875 C-93.7799012 281.6503578 -88.25789728 272.15983547 -83.421875 262.8515625 C-81.80573696 260.22374749 -80.63485036 258.73327794 -78.45703125 256.6953125 C-75.10316711 253.50510266 -73.30185289 250.04247306 -71.375 245.875 C-70.73845703 244.54679074 -70.10173551 243.21866704 -69.46484375 241.890625 C-69.14668701 241.20299072 -68.82853027 240.51535645 -68.50073242 239.80688477 C-67.75535833 238.27728471 -66.95007232 236.77612513 -66.1027832 235.30053711 C-62.39625958 228.67772995 -61.72574848 223.21032048 -61.75 215.6875 C-61.73343352 213.65746893 -61.70905708 211.62748218 -61.67578125 209.59765625 C-61.67618408 208.71343994 -61.67658691 207.82922363 -61.67700195 206.91821289 C-61.4375 204.625 -61.4375 204.625 -59.4375 201.625 C-59.22913378 198.81659383 -59.13348044 196.10993177 -59.13671875 193.30078125 C-59.13243362 192.48054977 -59.1281485 191.6603183 -59.12373352 190.81523132 C-59.11799003 189.07775799 -59.11749011 187.34026062 -59.12182617 185.6027832 C-59.12496775 182.96457917 -59.10159245 180.32751699 -59.07617188 177.68945312 C-59.07389681 175.99739724 -59.07319635 174.30533836 -59.07421875 172.61328125 C-59.06040413 171.442528 -59.06040413 171.442528 -59.04631042 170.24812317 C-59.10777742 162.84202113 -60.94704575 156.59755454 -66.125 151.0625 C-66.82625 150.3096875 -67.5275 149.556875 -68.25 148.78125 C-70.3007492 146.75979722 -72.41391024 144.9050748 -74.625 143.0625 C-78.57323288 139.73117851 -80.84730495 136.03557689 -83.4375 131.625 C-89.43441631 122.90221264 -99.21282314 117.05634354 -109.4375 114.625 C-113.20044374 114.12576407 -116.96143395 113.9003267 -120.75 113.6875 C-128.32753983 113.15782545 -134.96586808 112.41387898 -142.03515625 109.52734375 C-146.87317229 107.71013773 -151.93116808 107.38213673 -157.0625 107.1875 C-158.16851562 107.12691406 -159.27453125 107.06632812 -160.4140625 107.00390625 C-164.15469703 107.22283242 -166.60200423 108.77889916 -169.80859375 110.64453125 C-177.72853032 114.82649026 -185.17826937 114.15932328 -193.875 113.75 C-209.54162555 113.04675161 -209.54162555 113.04675161 -224.4375 117.625 C-226.61525321 119.58453017 -226.61525321 119.58453017 -228.3125 121.6875 C-231.7719102 125.73087047 -234.97391479 126.35405398 -240.0625 127 C-245.33644173 127.68678075 -245.33644173 127.68678075 -249.45703125 130.703125 C-250.40939364 132.41370429 -251.30270998 134.15838713 -252.13671875 135.9296875 C-257.32357429 146.677226 -267.59082676 152.30476836 -278.234375 156.5703125 C-283.84408381 159.2558114 -287.12333886 162.10626282 -290.3125 167.4375 C-294.88359963 174.57604838 -299.82334129 179.04635797 -307 183.4375 C-313.33229181 187.561608 -316.61297949 193.59948443 -320.44921875 199.9609375 C-327.39488875 211.34112628 -335.71975998 220.4059301 -346.6953125 228.125 C-349.41551473 230.46705752 -350.32907845 232.51234603 -350.67578125 236.0703125 C-350.70027344 236.95460938 -350.72476563 237.83890625 -350.75 238.75 C-351.77058101 250.29627467 -357.87530977 256.60605609 -366.09228516 264.18457031 C-373.31388663 270.96240646 -374.91595669 277.90778195 -376.16601562 287.39648438 C-377.01732906 292.99298867 -378.64366966 297.36420308 -383.21875 301.06640625 C-383.7859375 301.43636719 -384.353125 301.80632812 -384.9375 302.1875 C-389.37997309 305.73768149 -390.20730344 310.34867729 -391.515625 315.69921875 C-392.45024993 318.66546483 -393.18667988 319.62225414 -395.4375 321.625 C-397.30562557 327.22937672 -396.55400409 331.57398595 -394.9375 337.125 C-392.86322029 344.39986616 -392.75963002 349.14746301 -396.3671875 355.828125 C-397.33870993 357.45914806 -398.38443238 359.04539857 -399.4375 360.625 C-399.89144552 362.90412938 -399.89144552 362.90412938 -400.0625 365.3125 C-400.17464844 366.52486328 -400.17464844 366.52486328 -400.2890625 367.76171875 C-400.33804688 368.37660156 -400.38703125 368.99148438 -400.4375 369.625 C-399.7775 369.625 -399.1175 369.625 -398.4375 369.625 C-395.1631115 376.17377701 -399.30588568 389.09024414 -401.4375 395.625 C-403.82537126 398.59765606 -404.69981124 399.50456102 -408.5 400.125 C-411.4375 399.625 -411.4375 399.625 -413.08203125 398.12109375 C-415.0054117 394.57919143 -414.96833276 391.12655669 -415.0625 387.1875 C-415.12348947 385.54681815 -415.18599531 383.90619199 -415.25 382.265625 C-415.27835938 381.46576172 -415.30671875 380.66589844 -415.3359375 379.84179688 C-415.46491807 377.02654795 -415.7628515 374.23921347 -416.0625 371.4375 C-417.05217652 358.47273756 -417.66163374 344.31930601 -411.7109375 332.50390625 C-410.14559496 328.96507972 -409.37409841 325.41034288 -408.6875 321.625 C-408.56286377 320.94010498 -408.43822754 320.25520996 -408.30981445 319.54956055 C-407.62708303 315.50873757 -407.34270487 311.58992076 -407.25 307.5 C-406.78299098 300.44721077 -403.14508888 295.23842825 -399.51611328 289.40722656 C-393.23233913 279.0243494 -388.54478835 267.69290398 -385.48046875 255.9609375 C-384.50475632 252.84011947 -383.63614522 251.14256701 -381.5625 248.6875 C-379.46517692 246.06331316 -377.83988385 243.61474719 -376.4375 240.5625 C-375.10321892 237.70016257 -373.67445109 235.66011017 -371.5 233.375 C-366.28407847 227.59270316 -363.94460319 219.97272933 -362.25 212.5 C-360.39257251 205.92512883 -355.41882004 202.0141869 -350.4375 197.625 C-349.70402344 196.97402344 -348.97054687 196.32304687 -348.21484375 195.65234375 C-346.89299109 194.49349412 -345.56131596 193.34572539 -344.21875 192.2109375 C-342.55424611 190.728945 -341.15068668 189.17585916 -339.6875 187.5 C-337.00950073 184.72739749 -334.27926052 183.65482887 -330.6875 182.3125 C-318.98813303 177.76032995 -312.31447992 168.53123806 -305.921875 158.16796875 C-301.21676457 150.70170141 -296.11966637 147.09996159 -288.0390625 143.71484375 C-286.23319139 142.72021748 -286.23319139 142.72021748 -285.7109375 140.50390625 C-285.62070312 139.88386719 -285.53046875 139.26382813 -285.4375 138.625 C-291.05051634 139.30465542 -295.35339236 140.26787051 -299.9375 143.6875 C-304.10201785 146.75920111 -307.14641383 147.06967529 -312.21484375 147.3046875 C-315.83460714 147.82634057 -317.25951643 149.82473541 -319.4375 152.625 C-320.076875 153.635625 -320.71625 154.64625 -321.375 155.6875 C-324.73622396 159.89438222 -330.00817522 160.3083801 -334.98828125 161.578125 C-342.5202135 163.86414747 -346.6766891 168.54152395 -351.078125 174.82421875 C-352.4375 176.625 -352.4375 176.625 -354.875 178.5625 C-357.48550159 180.66363543 -358.90534706 182.64382107 -360.8125 185.375 C-363.9281344 189.54284426 -363.9281344 189.54284426 -368.3125 190.25 C-371.4375 189.625 -371.4375 189.625 -372.4375 188.625 C-372.95871147 185.57218996 -372.94145815 183.45504872 -371.30859375 180.765625 C-370.27689495 179.41875972 -369.22468925 178.08744098 -368.15625 176.76953125 C-366.40486374 174.58427885 -364.85280276 172.33795954 -363.3125 170 C-362.8175 169.25234375 -362.3225 168.5046875 -361.8125 167.734375 C-360.62823315 165.91760199 -359.46799892 164.08520417 -358.3125 162.25 C-355.35431056 158.10853478 -352.33043431 156.44945806 -347.5625 154.875 C-341.01655148 152.35658809 -338.27223238 148.13017826 -334.24609375 142.6328125 C-331.30788881 139.13487161 -327.94178278 137.65499865 -323.8125 135.875 C-316.99240754 132.72996308 -312.15958658 129.20961526 -306.8671875 123.82421875 C-302.37234223 119.7557334 -297.47488306 118.22957983 -291.6875 116.75 C-283.66974978 114.5242523 -276.94935 111.42251096 -270.125 106.6875 C-259.14328993 99.2191692 -245.35938505 93.81044284 -231.9375 93.375 C-228.79171465 92.98141674 -226.33920026 92.2604143 -223.515625 90.828125 C-222.80470703 90.47266602 -222.09378906 90.11720703 -221.36132812 89.75097656 C-219.93777206 89.01361801 -218.5195138 88.26591822 -217.10742188 87.50683594 C-210.98225961 84.22870657 -206.25632101 83.48523431 -199.25 83.5 C-198.01894531 83.49742187 -196.78789062 83.49484375 -195.51953125 83.4921875 C-192.4375 83.625 -192.4375 83.625 -190.4375 84.625 C-180.22717629 85.10640781 -170.64410906 84.82344473 -160.8125 81.82421875 C-152.91788339 79.45807656 -144.360836 77.73769123 -136.4375 80.9375 C-133.4375 82.625 -133.4375 82.625 -131.75 84.19140625 C-128.45094994 86.23659438 -125.21140697 86.15372474 -121.4375 86.25 C-119.91791713 86.31256049 -118.39838524 86.37637145 -116.87890625 86.44140625 C-115.75572998 86.48418701 -115.75572998 86.48418701 -114.60986328 86.52783203 C-109.87525915 86.73960686 -105.1566367 87.1976408 -100.4375 87.625 C-100.26716063 83.59817732 -100.57711948 81.16528496 -103.359375 78.03125 C-106.80763982 75.69783772 -110.78162283 75.0257729 -114.7800293 74.0847168 C-122.53988539 72.22276868 -127.10441485 68.89756929 -132.875 63.5625 C-141.08824076 56.22182951 -147.78193789 55.34151935 -158.50317383 55.05688477 C-163.77904289 54.87036153 -167.29455892 54.14818532 -171.921875 51.54296875 C-177.70681773 49.43200363 -184.3702173 49.86797917 -190.47387695 49.7668457 C-192.4375 49.625 -192.4375 49.625 -194.25976562 49.12231445 C-197.29253167 48.42974221 -200.18387068 48.49506078 -203.29296875 48.4921875 C-203.95404129 48.49123077 -204.61511383 48.49027405 -205.29621887 48.48928833 C-206.69398087 48.48860926 -208.09174606 48.49044449 -209.48950195 48.49462891 C-211.60049781 48.49993837 -213.71127673 48.49469688 -215.82226562 48.48828125 C-222.77530796 48.48509239 -229.54029024 48.73772075 -236.4375 49.625 C-238.43626573 49.70668033 -240.43707409 49.75568303 -242.4375 49.75 C-243.8296875 49.75386719 -243.8296875 49.75386719 -245.25 49.7578125 C-247.4375 49.625 -247.4375 49.625 -248.4375 48.625 C-249 45.875 -249 45.875 -248.4375 42.625 C-246.12346393 40.30415794 -243.36259479 39.04704608 -240.4375 37.625 C-239.62023437 37.15578125 -238.80296875 36.6865625 -237.9609375 36.203125 C-229.02939925 31.82347264 -220.29016177 32.23632557 -210.5222168 32.5456543 C-203.60897636 32.74873418 -197.20109026 32.33556835 -190.38647461 31.11791992 C-180.4656304 29.4596548 -174.10544784 30.92448899 -165.05078125 35.1796875 C-161.35069457 36.65972217 -158.26438262 37.22253308 -154.3125 37.625 C-147.97322359 38.27484214 -142.16159536 39.65705913 -136.0625 41.5 C-135.24249512 41.74492187 -134.42249023 41.98984375 -133.57763672 42.2421875 C-126.48806445 44.44521866 -119.45770937 47.09025658 -113.1875 51.125 C-112.58421875 51.5065625 -111.9809375 51.888125 -111.359375 52.28125 C-109.4375 53.625 -109.4375 53.625 -107.12109375 55.59765625 C-104.11562638 57.86816217 -101.23853431 59.15224145 -97.75 60.5625 C-96.50056884 61.08418486 -95.25187316 61.60763454 -94.00390625 62.1328125 C-92.82699219 62.62523437 -91.65007812 63.11765625 -90.4375 63.625 C-77.87615877 68.94551199 -67.81143107 77.94409126 -62.0625 90.4375 C-59.5634133 95.69505827 -56.70599527 100.18548332 -53.0078125 104.6796875 C-47.43820817 111.5793466 -45.53935792 118.66935416 -45.1875 127.375 C-44.69991958 134.41388828 -41.7570153 139.52404545 -38.4375 145.625 C-35.37040887 151.97359896 -33.43808226 157.51485668 -34.4375 164.625 C-34.7675 165.429375 -35.0975 166.23375 -35.4375 167.0625 C-37.54688982 172.46781142 -37.14914479 178.07538456 -34.94921875 183.3671875 C-33.15493262 187.91730898 -32.89917492 192.08053269 -32.9375 196.9375 C-32.94249512 197.77708252 -32.94749023 198.61666504 -32.95263672 199.48168945 C-33.11551573 205.29310029 -34.0903169 209.65334306 -36.93359375 214.7890625 C-39.22894382 219.11743692 -40.74695686 223.71067012 -42.38134766 228.32104492 C-44.23135398 233.41885398 -44.23135398 233.41885398 -46.4375 235.625 C-46.86486576 237.15297893 -47.22973702 238.69866834 -47.5625 240.25 C-51.4054779 254.73215811 -59.75406308 269.45596402 -71.96484375 278.49609375 C-76.03026552 281.9963384 -78.40393092 286.60558113 -81.15625 291.16210938 C-84.37934424 296.35129109 -87.9926017 300.45220993 -92.4375 304.625 C-93.5821875 305.8315625 -93.5821875 305.8315625 -94.75 307.0625 C-96.4375 308.625 -96.4375 308.625 -98.4375 308.625 C-98.71078125 309.35460937 -98.9840625 310.08421875 -99.265625 310.8359375 C-101.51821712 316.19710675 -104.35617532 321.23745022 -109.25 324.5 C-111.04162499 325.13233823 -112.84501785 325.73808087 -114.67578125 326.24609375 C-119.8475922 327.6085882 -119.8475922 327.6085882 -123.3125 331.5 C-127.02965958 336.96641114 -133.37487556 338.43261822 -139.3671875 340.765625 C-144.93416018 342.98060087 -149.76147787 345.41007147 -154.75 348.75 C-160.6666723 352.53638718 -165.89377772 353.81730514 -172.7734375 354.9140625 C-179.06733911 356.13526729 -184.90699178 358.70466749 -190.52734375 361.76171875 C-194.65182563 363.62574839 -199.17056569 363.0656728 -203.3125 361.625 C-209.29305276 359.71122312 -215.25048623 360.2605596 -221.3125 361.625 C-228.05446494 363.09018293 -235.94220029 364.33905592 -242.3125 361.0625 C-244.83701988 359.0933745 -246.23981287 357.70019998 -248.125 355.25 C-250.81561959 351.8302152 -253.62923957 350.37895118 -257.5625 348.5625 C-262.47435147 346.23104022 -265.26249837 344.82609084 -267.4375 339.625 C-268.177723 336.39026827 -268.84734776 333.14403708 -269.51953125 329.89453125 C-270.87462039 325.06810739 -273.39595911 321.53918354 -276.4375 317.625 C-278.789932 314.09635199 -278.65114184 312.73041846 -278.5625 308.56640625 C-278.54703125 307.37595703 -278.5315625 306.18550781 -278.515625 304.95898438 C-278.46362255 302.44856603 -278.41153947 299.93814936 -278.359375 297.42773438 C-278.34390625 296.23599609 -278.3284375 295.04425781 -278.3125 293.81640625 C-278.28929687 292.72529541 -278.26609375 291.63418457 -278.2421875 290.51000977 C-278.43817542 287.61502315 -278.9882744 286.08941213 -280.4375 283.625 C-281.79313061 277.67462138 -280.14004723 273.54001761 -277.125 268.375 C-275.39805025 265.63794757 -273.64704829 262.93048606 -271.81640625 260.26171875 C-270.04212698 256.8689751 -269.4256421 253.40484894 -268.6875 249.6875 C-267.63540017 244.90952673 -266.77408047 241.05577104 -262.8125 237.875 C-262.22210938 237.50890625 -261.63171875 237.1428125 -261.0234375 236.765625 C-257.89485564 234.51551194 -257.44621779 231.6755632 -256.8125 228 C-255.67119469 223.00445051 -252.6073198 219.72545374 -249.3125 215.921875 C-247.62871545 213.85923892 -246.60046034 211.9917263 -245.4375 209.625 C-244.695 209.0475 -243.9525 208.47 -243.1875 207.875 C-240.61943357 205.77385474 -239.71994522 204.49156034 -238.0625 201.75 C-233.9985347 196.10443995 -227.61799288 194.49063283 -221.31542969 192.29541016 C-218.6444741 191.34189429 -216.04536564 190.23811338 -213.4375 189.125 C-212.48101562 188.72667969 -211.52453125 188.32835937 -210.5390625 187.91796875 C-208.89939976 187.23443176 -207.26010934 186.5499648 -205.62402344 185.85791016 C-192.84804875 180.46774013 -180.20170137 175.49415948 -166.64990234 180.8605957 C-164.33817748 181.6593168 -162.11996698 182.13214174 -159.7109375 182.546875 C-158.9065625 182.68609375 -158.1021875 182.8253125 -157.2734375 182.96875 C-155.62763582 183.2404379 -153.9790181 183.49556656 -152.328125 183.734375 C-146.6457549 184.75756704 -144.15987312 186.40153399 -140.70703125 191.01611328 C-139.13035243 193.01425047 -137.62419316 193.82027974 -135.25 194.6875 C-132.28365949 196.03224103 -131.50937941 196.52197284 -129.5625 199.3125 C-126.90192898 207.14640356 -123.93519784 217.03435465 -127.48828125 224.97265625 C-128.37907768 226.4625724 -129.29242769 227.93920994 -130.2265625 229.40234375 C-131.53148126 231.79750108 -131.85945422 233.55913796 -132.1875 236.25 C-133.95555871 246.94175127 -142.48804891 258.59218542 -150.4375 265.625 C-154.35071651 268.35889099 -157.94992219 269.70496893 -162.6875 270.1875 C-166.59363491 270.64321574 -167.54452807 271.21419006 -170.4375 273.625 C-174.16334492 275.13119263 -177.43247299 276.32587973 -181.4375 275.625 C-182.9259402 274.39541897 -184.41103428 273.15883039 -185.828125 271.84765625 C-187.60828476 270.33183572 -187.60828476 270.33183572 -191.0625 269.6875 C-194.4375 268.625 -194.4375 268.625 -196.875 266 C-199.3331675 260.6903582 -199.0253017 256.68230596 -197.4375 251.125 C-197.1075 250.3 -196.7775 249.475 -196.4375 248.625 C-199.48432385 249.5308125 -201.12563479 250.23228085 -203.125 252.75 C-204.76095407 256.33351844 -205.55601977 259.7842647 -206.4375 263.625 C-206.7675 264.285 -207.0975 264.945 -207.4375 265.625 C-208.3953447 277.6110079 -208.3953447 277.6110079 -204.4375 288.625 C-201.91685377 290.29951381 -199.35143954 290.90544575 -196.4375 291.625 C-194.99907081 292.18511959 -193.56158483 292.74766682 -192.125 293.3125 C-184.7547751 295.73523829 -177.64104911 295.32633092 -170.4375 292.625 C-168.6892094 292.36331319 -166.93893753 292.1147219 -165.1875 291.875 C-158.03167017 290.65303452 -151.24712943 287.16943393 -146.4375 281.625 C-145.99792969 280.79613281 -145.55835938 279.96726562 -145.10546875 279.11328125 C-143.01248252 275.99095753 -141.1846229 275.26814684 -137.75 273.8125 C-126.80259951 268.5894029 -121.19550942 260.67586059 -116.4375 249.625 C-115.58385391 246.56984558 -114.90496839 243.51522247 -114.2421875 240.4140625 C-112.9237887 235.84446666 -110.29568222 232.36607621 -107.4375 228.625 C-104.15672246 224.19151684 -102.63308468 221.19916334 -102.4375 215.625 C-102.91703125 214.1090625 -102.91703125 214.1090625 -103.40625 212.5625 C-105.10658769 206.95584067 -104.79555024 201.08591388 -104.828125 195.27539062 C-104.97664976 189.53655885 -105.61754371 186.18385294 -109.4375 181.625 C-110.17613281 180.73361328 -110.17613281 180.73361328 -110.9296875 179.82421875 C-111.38601563 179.32535156 -111.84234375 178.82648438 -112.3125 178.3125 C-114.65443232 175.65791677 -116.59685929 172.92185947 -118.5 169.9375 C-122.15790631 164.37975087 -125.38383108 161.45165832 -132.0625 159.984375 C-134.87263177 159.55915769 -137.66411613 159.37183245 -140.5 159.1875 C-144.23609182 158.9359427 -146.42041825 158.63276443 -149.875 157.0625 C-157.12497828 154.13707017 -164.92140347 154.70194138 -172.125 157.5625 C-173.57447807 158.22437297 -175.01517743 158.90662613 -176.4375 159.625 C-178.91734587 160.86492293 -180.38020275 160.64700426 -183.14453125 160.51953125 C-206.48899523 160.02667996 -221.02769942 171.0574466 -238.30908203 185.50708008 C-243.69100222 189.99336751 -248.89216983 194.09491766 -255.0625 197.4375 C-261.4929181 200.95767468 -264.54253511 205.32635742 -268.125 211.5625 C-271.22419182 215.66683511 -275.031288 218.5232084 -279.07421875 221.671875 C-281.66642566 223.81419476 -282.33659586 224.58352517 -282.65625 227.8828125 C-283.34233131 234.87703026 -285.38961618 239.73906973 -289 245.625 C-292.54458678 251.42773717 -294.42187887 255.79619882 -294.14453125 262.78125 C-294.44407726 265.68884324 -295.03635181 266.85548345 -296.45703125 269.33203125 C-299.05791868 274.20517619 -298.65909382 278.42382637 -298.3125 283.8125 C-297.99922526 292.23995919 -298.82833389 297.60972315 -303.22265625 304.93359375 C-304.81956072 308.47143035 -304.69522229 309.95393606 -303.4375 313.625 C-302.44917159 314.7065799 -301.43025543 315.76060413 -300.390625 316.79296875 C-296.8346022 320.66232092 -296.85844773 323.81878021 -297.0078125 328.92773438 C-297.09675781 330.41756836 -297.09675781 330.41756836 -297.1875 331.9375 C-297.52593418 339.51743024 -297.2933293 346.23721562 -295.4375 353.625 C-294.4475 353.955 -293.4575 354.285 -292.4375 354.625 C-292.4375 355.285 -292.4375 355.945 -292.4375 356.625 C-291.4475 356.934375 -291.4475 356.934375 -290.4375 357.25 C-284.11254255 360.14893883 -279.70964705 364.0619583 -275.5625 369.625 C-270.56756312 376.16669248 -264.14221416 379.91244502 -256.4375 382.625 C-253.68872321 382.96970866 -253.68872321 382.96970866 -250.8046875 383.00390625 C-249.75152344 383.03806641 -248.69835937 383.07222656 -247.61328125 383.10742188 C-246.52402344 383.13384766 -245.43476563 383.16027344 -244.3125 383.1875 C-242.14311809 383.24740655 -239.9738349 383.31103722 -237.8046875 383.37890625 C-236.84675293 383.40283447 -235.88881836 383.4267627 -234.90185547 383.45141602 C-232.4375 383.625 -232.4375 383.625 -229.4375 384.625 C-219.0605167 385.58554018 -207.61000631 384.04277146 -198.109375 379.515625 C-193.10551731 377.84767244 -187.68512363 378.26425178 -182.44921875 378.234375 C-173.09007126 377.99197981 -166.647901 374.61148075 -158.875 369.5625 C-151.65800614 365.06543677 -146.50328455 362.82637052 -138.0625 362 C-130.35160998 360.95460703 -126.6763855 357.02290732 -121.4375 351.625 C-117.62658882 348.13613765 -114.07755606 345.80419034 -109.42382812 343.5949707 C-101.89266752 340.01800774 -96.4701513 336.25927875 -91.125 329.86816406 C-87.94133021 326.06490315 -84.74609142 323.54496214 -80.5546875 320.95703125 C-72.30629436 315.76754405 -67.50998381 308.81312581 -62.4375 300.625 C-61.963125 299.87605469 -61.48875 299.12710937 -61 298.35546875 C-59.38533555 295.79723477 -57.784912 293.24435174 -56.3046875 290.60546875 C-54.14170217 286.85963653 -52.09229477 284.19012498 -48.6875 281.5 C-39.67986718 273.95398307 -35.16264971 263.68928651 -31.68188477 252.76147461 C-29.24428973 245.40481448 -25.10547785 239.58136923 -19.84765625 233.91015625 C-17.24462771 229.69195211 -16.57704504 224.68320558 -15.5078125 219.88671875 C-14.26096796 214.71067334 -12.57257003 210.713117 -9.53662109 206.32519531 C-7.16885182 202.66256865 -7.2853662 199.17574947 -7.125 194.9375 C-6.70982831 188.8042819 -5.73571253 184.742916 -2.4375 179.625 C-1.39340294 177.89729975 -0.35185188 176.168059 0.6875 174.4375 C1.18507813 173.63957031 1.68265625 172.84164062 2.1953125 172.01953125 C4.60173049 167.80486203 5.71264533 164.53613632 5.75 159.6875 C6.08640402 154.67508014 7.70024 151.06247658 10.125 146.75 C13.84171095 140.06657874 14.58455858 134.19752497 13.5625 126.625 C13.2325 125.965 12.9025 125.305 12.5625 124.625 C12.03892735 119.80813161 12.86429152 116.53655693 14.5625 112 C17.07458225 104.9091579 18.1762401 97.07463084 15.55639648 89.85083008 C14.49027357 86.39057902 14.32293088 83.61637588 14.32421875 80.00390625 C14.30536621 78.11671875 14.30536621 78.11671875 14.28613281 76.19140625 C14.28117798 75.53672363 14.27622314 74.88204102 14.27111816 74.20751953 C14.14852104 62.48071495 13.33770007 52.50553943 8.5625 41.625 C7.62921479 39.09622579 6.75560478 36.54751126 5.875 34 C5.11345839 31.87165243 4.34358202 29.74625432 3.5625 27.625 C3.24667969 26.71621094 2.93085937 25.80742187 2.60546875 24.87109375 C1.62351445 22.3043946 1.62351445 22.3043946 -1.4375 20.3125 C-5.20349936 17.40073952 -5.84198347 14.20303335 -6.4375 9.625 C-6.56125 8.7175 -6.685 7.81 -6.8125 6.875 C-6.13925392 2.83552349 -3.872348 0.99290974 0 0 Z " fill="#FAFAFA" transform="translate(544.4375,126.375)"/>
<path d="M0 0 C2.39504757 1.06446559 4.14672824 2.12946609 6.125 3.875 C11.38659155 7.76400245 17.31930402 9.80227242 23.75 10.8125 C28.15588581 11.68898172 30.29995894 13.64190009 32.9765625 17.18359375 C34.33365655 19.59217671 34.55629216 21.29800953 34 24 C33.505 24.495 33.505 24.495 33 25 C31.33001747 24.93246394 29.66296329 24.79220011 28 24.625 C24.21687401 24.25348344 20.46711737 23.96498345 16.66796875 23.8828125 C2.78696294 23.51780187 2.78696294 23.51780187 -3 18 C-4.31252882 17.29325371 -5.63552891 16.60036728 -7 16 C-5.35 15.67 -3.7 15.34 -2 15 C-1.87625 14.4225 -1.7525 13.845 -1.625 13.25 C-0.99351176 10.97664233 -0.11141809 9.0746471 1 7 C0.34 6.67 -0.32 6.34 -1 6 C-0.67 5.34 -0.34 4.68 0 4 C0 2.68 0 1.36 0 0 Z " fill="#101010" transform="translate(411,190)"/>
<path d="M0 0 C0.66 0.33 1.32 0.66 2 1 C0.84826645 3.46800047 -0.04783565 5.04783565 -2 7 C-0.68 7 0.64 7 2 7 C1.67 7.99 1.34 8.98 1 10 C4.96 10.33 8.92 10.66 13 11 C13 11.33 13 11.66 13 12 C12.04480469 12.02578125 11.08960938 12.0515625 10.10546875 12.078125 C2.63400826 12.40588598 -3.57341834 13.07104232 -10.53515625 16.0625 C-17.7468372 18.80545313 -25.59918321 18.18365392 -33.1875 18.1875 C-34.47076172 18.19974609 -35.75402344 18.21199219 -37.07617188 18.22460938 C-38.30271484 18.22654297 -39.52925781 18.22847656 -40.79296875 18.23046875 C-41.9121167 18.23457764 -43.03126465 18.23868652 -44.18432617 18.24291992 C-47 18 -47 18 -50 16 C-49.75 13.625 -49.75 13.625 -49 11 C-45.55870167 8.56937424 -42.10988215 8.70146118 -38 8.5625 C-18.78517692 8.01655098 -18.78517692 8.01655098 -1.4609375 0.890625 C-0.97882813 0.59671875 -0.49671875 0.3028125 0 0 Z " fill="#121212" transform="translate(381,518)"/>
<path d="M0 0 C4.74074498 0.4740745 6.49897763 0.81435645 9.75 4.375 C10.36657818 8.0313517 10.56363301 11.55190245 10.64453125 15.2578125 C10.5301278 18.28251608 10.5301278 18.28251608 11.75 20.375 C11.8981544 22.32949844 11.97124849 24.2901053 12 26.25 C12.02578125 27.29929688 12.0515625 28.34859375 12.078125 29.4296875 C11.71039485 32.73050334 11.14393554 34.09558074 8.75 36.375 C5.0625 36.625 5.0625 36.625 1.75 36.375 C-1.37983868 31.47612206 -1.59888179 27.21651659 -1.93359375 21.4765625 C-2.32650148 17.62509656 -3.40811577 14.23297544 -4.609375 10.5703125 C-5.43510255 7.74068517 -5.61528089 5.2972471 -5.25 2.375 C-3.25 0.375 -3.25 0.375 0 0 Z " fill="#F7F7F7" transform="translate(525.25,223.625)"/>
<path d="M0 0 C5.211468 0.98329585 7.39572914 4.3875605 10.3125 8.625 C13.63872367 14.16545468 15.76209744 20.12140068 14.3125 26.625 C12.51116511 28.88690348 11.74458545 29.53636709 8.875 30.125 C6.3125 29.625 6.3125 29.625 4.3125 27.75 C2.05905827 24.2289973 0.24005374 20.61123677 -1.5390625 16.83203125 C-2.61189255 14.50003033 -2.61189255 14.50003033 -4.6875 12.625 C-4.953125 10.3125 -4.953125 10.3125 -4.9375 7.625 C-4.94265625 6.738125 -4.9478125 5.85125 -4.953125 4.9375 C-4.55126063 1.43891604 -3.33985145 0.77670964 0 0 Z " fill="#F6F6F6" transform="translate(507.6875,179.375)"/>
<path d="M0 0 C2 2 2 2 2.4375 4.8125 C1.84161748 9.15392979 0.41118719 10.29947681 -3 13 C-9.52791434 17.02253144 -17.23773872 19.92407872 -25 19 C-27.33043558 15.50434664 -27.58763244 14.1134271 -27 10 C-23.45542985 5.7220705 -18.75525475 4.98697305 -13.58203125 3.7265625 C-10.85712806 3.08193335 -10.85712806 3.08193335 -8.1875 1.3125 C-5.30416674 -0.41749996 -3.3026272 -0.36695858 0 0 Z " fill="#F4F4F4" transform="translate(509,500)"/>
<path d="M0 0 C0.66 0.66 1.32 1.32 2 2 C1.90992331 7.68302003 -0.69360614 10.61753151 -4.3125 14.625 C-4.79912109 15.18445313 -5.28574219 15.74390625 -5.78710938 16.3203125 C-13.28513339 24.8779496 -13.28513339 24.8779496 -16.5625 25.4375 C-19 25 -19 25 -20.875 23.875 C-22 22 -22 22 -22.125 19.375 C-20.46861797 14.40585391 -17.35954239 10.95603257 -14 7 C-13.43023437 6.30777344 -12.86046875 5.61554688 -12.2734375 4.90234375 C-8.15206632 -0.04127143 -6.68436327 -1.53183325 0 0 Z " fill="#F1F1F1" transform="translate(167,324)"/>
<path d="M0 0 C3.8565796 1.28552653 4.14200211 2.44681846 6 6 C7.14057674 8.44952434 8.21862177 10.88166817 9.25 13.375 C9.53101563 14.00921875 9.81203125 14.6434375 10.1015625 15.296875 C12.00602773 19.9166174 12.15185588 23.15975453 11 28 C10 29 10 29 6.4375 29.0625 C5.303125 29.041875 4.16875 29.02125 3 29 C-6.93586783 9.70705276 -6.93586783 9.70705276 -6 3 C-4.28792471 0.05142588 -3.42384548 0 0 0 Z " fill="#F3F3F3" transform="translate(141,543)"/>
<path d="M0 0 C5.85167766 0.24900756 9.05431083 2.12867742 13.78125 5.50390625 C16.72385082 7.48808955 19.70818983 8.69699181 23 10 C24 11 24 11 24.25 13.875 C24 17 24 17 22.875 18.875 C20.09809821 20.54114107 18.21129069 20.29677805 15 20 C11.7109375 18.390625 11.7109375 18.390625 8.375 16.25 C7.26898438 15.55390625 6.16296875 14.8578125 5.0234375 14.140625 C2.35062481 12.24824599 0.12813574 10.48111979 -2 8 C-2.55156953 4.23094157 -2.16551116 3.24826674 0 0 Z " fill="#F0F0F0" transform="translate(229,579)"/>
<path d="M0 0 C1.53159584 2.46757108 1.55322025 3.95769831 1.125 6.8125 C-1.21003203 9.83795679 -3.88087596 10.73459387 -7.4375 11.9375 C-11.22610062 13.20900186 -11.22610062 13.20900186 -14.875 14.8125 C-17.875 15.0625 -17.875 15.0625 -20.875 14.8125 C-23.23161998 11.27757003 -23.62346247 9.97062485 -22.875 5.8125 C-17.99142717 0.37971077 -6.62772546 -4.19755946 0 0 Z " fill="#F4F4F4" transform="translate(280.875,174.1875)"/>
<path d="M0 0 C3.5 -0.3125 3.5 -0.3125 7 0 C9.49040942 2.49040942 9.32391014 3.43154357 9.375 6.875 C9.30043393 10.31498131 9.2060177 11.67952802 7.3125 14.625 C4.56954367 16.25594701 3.13538083 16.57757015 0 16 C-2.15942819 12.76085771 -2.27232978 11.75140267 -2.25 8 C-2.25515625 7.13375 -2.2603125 6.2675 -2.265625 5.375 C-2 3 -2 3 0 0 Z " fill="#EEEEEE" transform="translate(526,280)"/>
<path d="M0 0 C2.375 0.4375 2.375 0.4375 5.375 2.4375 C5.90868455 6.47825443 5.73593778 8.75893698 3.8125 12.375 C1.375 14.4375 1.375 14.4375 -2.25 14.875 C-5.625 14.4375 -5.625 14.4375 -7.625 12.4375 C-8.20878066 8.01744641 -8.13469342 6.12194546 -5.4375 2.5 C-2.625 0.4375 -2.625 0.4375 0 0 Z " fill="#F6F6F6" transform="translate(136.625,360.5625)"/>
<path d="M0 0 C0.87785156 0.00515625 1.75570313 0.0103125 2.66015625 0.015625 C3.53542969 0.01046875 4.41070312 0.0053125 5.3125 0 C7.72265625 0.265625 7.72265625 0.265625 10.72265625 2.265625 C11.03515625 5.265625 11.03515625 5.265625 10.72265625 8.265625 C8.21252662 10.77575463 7.25460388 10.56284109 3.78515625 10.578125 C2.47224609 10.60326172 2.47224609 10.60326172 1.1328125 10.62890625 C-1.27734375 10.265625 -1.27734375 10.265625 -3.07421875 8.90625 C-4.76295309 6.60343044 -4.63442588 5.05086562 -4.27734375 2.265625 C-2.27734375 0.265625 -2.27734375 0.265625 0 0 Z " fill="#F1F1F1" transform="translate(268.27734375,597.734375)"/>
<path d="M0 0 C6.89416847 -0.65658747 6.89416847 -0.65658747 10 1.1875 C11.39307149 3.71244208 11.48563105 5.15558958 11 8 C9.4375 10.3125 9.4375 10.3125 7 12 C3.375 12.4375 3.375 12.4375 0 12 C-2.31332486 8.53001271 -2.33957563 7.07490752 -2 3 C-1.34 2.01 -0.68 1.02 0 0 Z " fill="#EEEEEE" transform="translate(520,490)"/>
<path d="M0 0 C-0.33 1.65 -0.66 3.3 -1 5 C-1.66 5 -2.32 5 -3 5 C-4.57273568 7.8424854 -4.57273568 7.8424854 -5 11 C-5.66 11 -6.32 11 -7 11 C-6.24849977 14.27773504 -6.24849977 14.27773504 -3 16 C-2.01 16.33 -1.02 16.66 0 17 C-1.20798677 18.53771021 -2.44222914 20.05482456 -3.6875 21.5625 C-4.37199219 22.40941406 -5.05648437 23.25632812 -5.76171875 24.12890625 C-8 26 -8 26 -10.76953125 25.77734375 C-11.50558594 25.52082031 -12.24164062 25.26429688 -13 25 C-12.54941858 18.39147247 -8.46224195 0 0 0 Z " fill="#161616" transform="translate(526,398)"/>
<path d="M0 0 C-0.10546875 2.2734375 -0.10546875 2.2734375 -1 5 C-3.80078125 6.9140625 -3.80078125 6.9140625 -7.3125 8.625 C-11.14186683 10.52038649 -14.68008207 12.29488168 -18 15 C-17.814375 14.2575 -17.62875 13.515 -17.4375 12.75 C-17.0013083 10.00822361 -17.24797558 8.60701799 -18 6 C-11.82540483 1.74863939 -7.58628679 -0.84292075 0 0 Z " fill="#131313" transform="translate(259,265)"/>
<path d="M0 0 C-0.165 0.825 -0.33 1.65 -0.5 2.5 C-1.47096353 9.29674469 -1.65553345 13.90744426 2 20 C-2.75 18.125 -2.75 18.125 -5 17 C-5.125 10.25 -5.125 10.25 -4 8 C-4.66 8 -5.32 8 -6 8 C-6.33 8.99 -6.66 9.98 -7 11 C-7.66 11 -8.32 11 -9 11 C-8.41460258 4.70697769 -6.90572372 0 0 0 Z " fill="#1A1A1A" transform="translate(348,375)"/>
<path d="M0 0 C-0.56545837 3.95820859 -1.80902348 6.6659053 -4 10 C-4.33 9.34 -4.66 8.68 -5 8 C-7.97 8.66 -10.94 9.32 -14 10 C-14 10.66 -14 11.32 -14 12 C-14.66 12 -15.32 12 -16 12 C-16 11.34 -16 10.68 -16 10 C-16.66 9.67 -17.32 9.34 -18 9 C-16.845 8.443125 -15.69 7.88625 -14.5 7.3125 C-10.71287381 5.43241422 -7.18854867 3.28406008 -3.6640625 0.953125 C-2 0 -2 0 0 0 Z " fill="#181818" transform="translate(398,470)"/>
<path d="M0 0 C1.485 0.99 1.485 0.99 3 2 C3.66 1.67 4.32 1.34 5 1 C6.5 2.3125 6.5 2.3125 8 4 C8 4.99 8 5.98 8 7 C7.34 7 6.68 7 6 7 C5.34 9.31 4.68 11.62 4 14 C3.34 14 2.68 14 2 14 C1.46877637 12.23225581 0.95035927 10.46065917 0.4375 8.6875 C0.14746094 7.70136719 -0.14257812 6.71523438 -0.44140625 5.69921875 C-1 3 -1 3 0 0 Z " fill="#0D0D0D" transform="translate(450,280)"/>
<path d="M0 0 C1.32 0.33 2.64 0.66 4 1 C3.67 2.65 3.34 4.3 3 6 C4.32 6.66 5.64 7.32 7 8 C7 9.32 7 10.64 7 12 C2.33333333 9.66666667 -2.33333333 7.33333333 -7 5 C-4 3 -4 3 0 3 C0 2.01 0 1.02 0 0 Z " fill="#1A1A1A" transform="translate(416,255)"/>
<path d="M0 0 C0.75 1.6875 0.75 1.6875 1 4 C-0.80450953 6.87384851 -2.01312923 8.64363 -5.25 9.8125 C-5.8275 9.874375 -6.405 9.93625 -7 10 C-7 7.36 -7 4.72 -7 2 C-2.25 0 -2.25 0 0 0 Z " fill="#161616" transform="translate(7,542)"/>
<path d="M0 0 C0.33 0 0.66 0 1 0 C1.66 2.97 2.32 5.94 3 9 C2.21625 9.20625 1.4325 9.4125 0.625 9.625 C-2.30916286 10.80676612 -2.30916286 10.80676612 -3.3125 14.125 C-3.6528125 15.548125 -3.6528125 15.548125 -4 17 C-4.66 16.67 -5.32 16.34 -6 16 C-6.3125 12.75 -6.3125 12.75 -6 9 C-3.5625 6.875 -3.5625 6.875 -1 5 C-0.12056596 2.36539052 -0.12056596 2.36539052 0 0 Z " fill="#121212" transform="translate(314,413)"/>
<path d="M0 0 C0.99 0 1.98 0 3 0 C3.75 2.1875 3.75 2.1875 4 5 C1.98956723 8.01564915 -0.39120478 10.49990458 -3 13 C-3.721875 13.721875 -4.44375 14.44375 -5.1875 15.1875 C-6.0846875 16.0846875 -6.0846875 16.0846875 -7 17 C-7.66 16.67 -8.32 16.34 -9 16 C-8.60167969 15.5153125 -8.20335937 15.030625 -7.79296875 14.53125 C-4.09138948 9.84798669 -1.82650024 5.6824452 0 0 Z " fill="#161616" transform="translate(539,370)"/>
<path d="M0 0 C0.66 0.33 1.32 0.66 2 1 C1.01 2.485 1.01 2.485 0 4 C-0.66 4 -1.32 4 -2 4 C-1.67 4.99 -1.34 5.98 -1 7 C-2.07107117 7.86949317 -3.15745944 8.72014205 -4.25 9.5625 C-4.85328125 10.03816406 -5.4565625 10.51382812 -6.078125 11.00390625 C-8 12 -8 12 -10.234375 11.65234375 C-10.81703125 11.43707031 -11.3996875 11.22179687 -12 11 C-8.42270128 6.33867137 -4.89132699 3.26088466 0 0 Z " fill="#1B1B1B" transform="translate(240,307)"/>
<path d="M0 0 C0.33 0 0.66 0 1 0 C1 4.29 1 8.58 1 13 C2.65 13 4.3 13 6 13 C4.74458443 15.51083114 3.49936512 15.87125446 1 17 C1.99 17.66 2.98 18.32 4 19 C3.67 19.99 3.34 20.98 3 22 C1.02 22 -0.96 22 -3 22 C-2.68289063 21.00871094 -2.36578125 20.01742188 -2.0390625 18.99609375 C-0.90616541 15.03095395 -0.593831 11.18381716 -0.375 7.0625 C-0.33632813 6.37865234 -0.29765625 5.69480469 -0.2578125 4.99023438 C-0.16477588 3.32720487 -0.08136213 1.66364153 0 0 Z " fill="#2E2E2E" transform="translate(511,318)"/>
<path d="M0 0 C2.625 -0.1875 2.625 -0.1875 5 0 C4.53199289 4.05606165 4.12046792 7.46588679 2 11 C1.34 11 0.68 11 0 11 C-1.7578125 5.04296875 -1.7578125 5.04296875 -2 3 C-1.34 2.01 -0.68 1.02 0 0 Z " fill="#101010" transform="translate(479,201)"/>
<path d="M0 0 C0.66 0.33 1.32 0.66 2 1 C2 1.99 2 2.98 2 4 C3.65 3.67 5.3 3.34 7 3 C7 3.66 7 4.32 7 5 C6.38125 5.061875 5.7625 5.12375 5.125 5.1875 C2.72238859 5.828919 2.72238859 5.828919 1.75 8.5625 C1.5025 9.366875 1.255 10.17125 1 11 C-3 6.375 -3 6.375 -3 3 C-2.34 3 -1.68 3 -1 3 C-0.67 2.01 -0.34 1.02 0 0 Z " fill="#101010" transform="translate(493,224)"/>
<path d="M0 0 C1.1875 1.6875 1.1875 1.6875 2 4 C0.875 6.75 0.875 6.75 -1 9 C-2.32 9 -3.64 9 -5 9 C-5.96516243 5.99727245 -6.22393475 3.95784231 -5 1 C-2 0 -2 0 0 0 Z " fill="#0D0D0D" transform="translate(558,128)"/>
<path d="M0 0 C0.99 0.33 1.98 0.66 3 1 C3.33 3.31 3.66 5.62 4 8 C3.01 8 2.02 8 1 8 C0.34 8.66 -0.32 9.32 -1 10 C-1 9.34 -1 8.68 -1 8 C-1.99 8.33 -2.98 8.66 -4 9 C-2.94124926 5.59687262 -1.99097846 2.98646769 0 0 Z " fill="#202020" transform="translate(213,449)"/>
<path d="M0 0 C0.33 0.99 0.66 1.98 1 3 C-0.51395687 5.60737017 -2.02298963 7.01609274 -4.5 8.75 C-7.92148016 11.82933215 -8.61986028 14.64166403 -10 19 C-10.66 18.34 -11.32 17.68 -12 17 C-12.66 17.33 -13.32 17.66 -14 18 C-12.58206641 13.48839312 -10.38935936 11.23872117 -7 8 C-4.63022283 5.36472913 -2.31244348 2.68563321 0 0 Z " fill="#232323" transform="translate(570,383)"/>
<path d="M0 0 C0.66 0.33 1.32 0.66 2 1 C-10.24354244 15.92250923 -10.24354244 15.92250923 -16 20 C-16.99 19.67 -17.98 19.34 -19 19 C-18.27554687 18.443125 -17.55109375 17.88625 -16.8046875 17.3125 C-11.52309746 13.14356493 -6.92017512 9.2091593 -3.12109375 3.62890625 C-2 2 -2 2 0 0 Z " fill="#DADADA" transform="translate(283,295)"/>
<path d="M0 0 C2.875 -0.125 2.875 -0.125 6 0 C6.66 0.66 7.32 1.32 8 2 C4.7 4.31 1.4 6.62 -2 9 C-3 6 -3 6 -1.5625 2.8125 C-1.046875 1.884375 -0.53125 0.95625 0 0 Z " fill="#1A1A1A" transform="translate(226,253)"/>
<path d="M0 0 C0.99 0.33 1.98 0.66 3 1 C2.55074862 5.82945236 1.45263456 8.54736544 -2 12 C-2.99 12 -3.98 12 -5 12 C-5 11.01 -5 10.02 -5 9 C-2.5 7.3125 -2.5 7.3125 0 6 C-2.11785113 4.88214887 -2.11785113 4.88214887 -5 4 C-5 3.01 -5 2.02 -5 1 C-2.525 1.495 -2.525 1.495 0 2 C0 1.34 0 0.68 0 0 Z " fill="#171717" transform="translate(629,168)"/>
<path d="M0 0 C0.66 0 1.32 0 2 0 C2.33 0.66 2.66 1.32 3 2 C4.32 2 5.64 2 7 2 C3.61831569 5.68006822 0.57478244 7.9785845 -4 10 C-4 9.01 -4 8.02 -4 7 C-3.34 7 -2.68 7 -2 7 C-1.34 4.69 -0.68 2.38 0 0 Z " fill="#111111" transform="translate(250,323)"/>
<path d="M0 0 C1.27230469 0.01804688 2.54460937 0.03609375 3.85546875 0.0546875 C5.31919922 0.08949219 5.31919922 0.08949219 6.8125 0.125 C5.8225 0.62 5.8225 0.62 4.8125 1.125 C4.8125 2.775 4.8125 4.425 4.8125 6.125 C5.4725 6.455 6.1325 6.785 6.8125 7.125 C5.8225 7.125 4.8325 7.125 3.8125 7.125 C3.8125 6.465 3.8125 5.805 3.8125 5.125 C3.1525 5.125 2.4925 5.125 1.8125 5.125 C1.8125 4.465 1.8125 3.805 1.8125 3.125 C0.4925 3.125 -0.8275 3.125 -2.1875 3.125 C-2.1875 2.465 -2.1875 1.805 -2.1875 1.125 C-2.8475 1.125 -3.5075 1.125 -4.1875 1.125 C-4.1875 1.785 -4.1875 2.445 -4.1875 3.125 C-7.1575 2.63 -7.1575 2.63 -10.1875 2.125 C-6.4507157 -0.36618953 -4.44298181 -0.0815226 0 0 Z " fill="#292929" transform="translate(387.1875,232.875)"/>
<path d="M0 0 C0.66 0 1.32 0 2 0 C2.33 0.66 2.66 1.32 3 2 C4.64363134 2.72159424 6.31050386 3.39351421 8 4 C7.34 5.32 6.68 6.64 6 8 C3.03 7.01 0.06 6.02 -3 5 C-1.625 2.5 -1.625 2.5 0 0 Z " fill="#1A1A1A" transform="translate(415,165)"/>
<path d="M0 0 C0.99 0.33 1.98 0.66 3 1 C2.33333333 2.33333333 1.66666667 3.66666667 1 5 C1.99 5.33 2.98 5.66 4 6 C2.02 8.97 2.02 8.97 0 12 C-1.32 11.34 -2.64 10.68 -4 10 C-4 9.34 -4 8.68 -4 8 C-3.34 7.67 -2.68 7.34 -2 7 C-1.62633887 5.00714063 -1.29259485 3.00636471 -1 1 C-0.67 0.67 -0.34 0.34 0 0 Z " fill="#0F0F0F" transform="translate(527,402)"/>
<path d="M0 0 C0.99 0.33 1.98 0.66 3 1 C1.52765957 7.62553191 1.52765957 7.62553191 -0.9375 9.375 C-1.618125 9.58125 -2.29875 9.7875 -3 10 C-3.99 10.33 -4.98 10.66 -6 11 C-6 10.01 -6 9.02 -6 8 C-5.34 8 -4.68 8 -4 8 C-4 6.35 -4 4.7 -4 3 C-3.67 3.66 -3.34 4.32 -3 5 C-2.34 5 -1.68 5 -1 5 C-0.67 3.35 -0.34 1.7 0 0 Z " fill="#131313" transform="translate(214,37)"/>
<path d="M0 0 C6.0546875 -0.1953125 6.0546875 -0.1953125 8 0 C8.66 0.66 9.32 1.32 10 2 C9.34 2 8.68 2 8 2 C7.34 3.32 6.68 4.64 6 6 C3 5 3 5 2 4 C1.34 4 0.68 4 0 4 C0 2.68 0 1.36 0 0 Z " fill="#0B0B0B" transform="translate(392,234)"/>
<path d="M0 0 C0.66 0.33 1.32 0.66 2 1 C1.01 1.66 0.02 2.32 -1 3 C-1.33 3.99 -1.66 4.98 -2 6 C-2.99 6 -3.98 6 -5 6 C-5 6.66 -5 7.32 -5 8 C-7.475 7.01 -7.475 7.01 -10 6 C-7.31100548 2.67830089 -3.94687492 1.43522725 0 0 Z " fill="#262626" transform="translate(393,512)"/>
<path d="M0 0 C0.66 0.33 1.32 0.66 2 1 C1.21625 1.9075 0.4325 2.815 -0.375 3.75 C-1.92346128 5.58906886 -3.02978703 7.06307842 -4.0625 9.25 C-5.29653013 11.55352292 -6.62046065 12.03331214 -9 13 C-9.99 13.495 -9.99 13.495 -11 14 C-9.61085525 9.70281047 -7.61968015 7.29312243 -4.375 4.1875 C-3.55773437 3.39730469 -2.74046875 2.60710937 -1.8984375 1.79296875 C-0.95871094 0.90544922 -0.95871094 0.90544922 0 0 Z " fill="#DFDFDF" transform="translate(194,324)"/>
<path d="M0 0 C3.465 1.485 3.465 1.485 7 3 C5.35 4.98 3.7 6.96 2 9 C0 8 0 8 -0.6875 6.1875 C-1.02688538 3.81180233 -0.72856341 2.26664171 0 0 Z " fill="#121212" transform="translate(329,353)"/>
<path d="M0 0 C0.66 0.33 1.32 0.66 2 1 C-0.22626416 5.57620966 -2.4442033 6.91192651 -7 9 C-8.81554159 10.56102491 -8.81554159 10.56102491 -10 12 C-10.66 11.67 -11.32 11.34 -12 11 C-8.17426612 7.07503959 -4.38002676 3.31820209 0 0 Z " fill="#212121" transform="translate(496,455)"/>
<path d="M0 0 C0.33 1.65 0.66 3.3 1 5 C-4.75 8 -4.75 8 -7 8 C-7 5 -7 5 -5 3 C-4.505 2.46375 -4.01 1.9275 -3.5 1.375 C-2 0 -2 0 0 0 Z " fill="#161616" transform="translate(407,440)"/>
<path d="M0 0 C2.5 0.5 2.5 0.5 5.5 3.5 C2.53 4.82 -0.44 6.14 -3.5 7.5 C-4.16 6.84 -4.82 6.18 -5.5 5.5 C-3.19060773 0.63812155 -3.19060773 0.63812155 0 0 Z " fill="#0F0F0F" transform="translate(327.5,208.5)"/>
<path d="M0 0 C0.66 0 1.32 0 2 0 C1.69381595 3.67420866 1.24228216 4.78135513 -1.5625 7.3125 C-2.366875 7.869375 -3.17125 8.42625 -4 9 C-4.66 8.34 -5.32 7.68 -6 7 C-4.625 5 -4.625 5 -3 3 C-2.34 3 -1.68 3 -1 3 C-0.67 2.01 -0.34 1.02 0 0 Z " fill="#131313" transform="translate(448,457)"/>
<path d="M0 0 C0.99 0.33 1.98 0.66 3 1 C1.02 3.97 -0.96 6.94 -3 10 C-5 6 -5 6 -5 4 C-4.34 4 -3.68 4 -3 4 C-3 3.34 -3 2.68 -3 2 C-2.01 1.34 -1.02 0.68 0 0 Z " fill="#161616" transform="translate(210,265)"/>
<path d="M0 0 C0.33 0.99 0.66 1.98 1 3 C1.99 2.67 2.98 2.34 4 2 C4.33 3.65 4.66 5.3 5 7 C3.35 7.33 1.7 7.66 0 8 C-0.79953138 4.71303767 -1.09658936 3.28976808 0 0 Z " fill="#272727" transform="translate(514,416)"/>
<path d="M0 0 C0.66 0.33 1.32 0.66 2 1 C1.67 2.65 1.34 4.3 1 6 C1.66 6 2.32 6 3 6 C3.33 7.32 3.66 8.64 4 10 C3.01 10 2.02 10 1 10 C0.67 8.35 0.34 6.7 0 5 C-1.32 5.33 -2.64 5.66 -4 6 C-3.6875 4.125 -3.6875 4.125 -3 2 C-2.01 1.34 -1.02 0.68 0 0 Z " fill="#161616" transform="translate(292,402)"/>
<path d="M0 0 C0.99 0.99 1.98 1.98 3 3 C2.67 3.99 2.34 4.98 2 6 C-1.0625 7.1875 -1.0625 7.1875 -4 8 C-3.40072174 4.64404172 -2.15377564 2.62198774 0 0 Z " fill="#121212" transform="translate(444,390)"/>
<path d="M0 0 C0.66 0.99 1.32 1.98 2 3 C1.360625 3.9075 0.72125 4.815 0.0625 5.75 C-1.61428953 8.39221381 -2.53689998 9.9898499 -3 13 C-3.99 13 -4.98 13 -6 13 C-4.58707905 8.1725201 -2.57025846 4.2837641 0 0 Z " fill="#1F1F1F" transform="translate(581,266)"/>
<path d="M0 0 C2.97 0.495 2.97 0.495 6 1 C5.67 2.32 5.34 3.64 5 5 C5.66 5 6.32 5 7 5 C7 5.99 7 6.98 7 8 C6.01 8 5.02 8 4 8 C3.67 7.34 3.34 6.68 3 6 C2.01 6.495 2.01 6.495 1 7 C1.33 5.68 1.66 4.36 2 3 C1.34 2.67 0.68 2.34 0 2 C0 1.34 0 0.68 0 0 Z " fill="#1F1F1F" transform="translate(288,713)"/>
<path d="M0 0 C1.32 0.66 2.64 1.32 4 2 C4 2.66 4 3.32 4 4 C0.53846154 7 0.53846154 7 -2 7 C-2.33 7.66 -2.66 8.32 -3 9 C-3.33 7.35 -3.66 5.7 -4 4 C-3.34 4 -2.68 4 -2 4 C-1.34 2.68 -0.68 1.36 0 0 Z " fill="#1E1E1E" transform="translate(52,695)"/>
<path d="M0 0 C1.98 0.495 1.98 0.495 4 1 C4.79953138 4.28696233 5.09658936 5.71023192 4 9 C3.01 9 2.02 9 1 9 C1.33 8.01 1.66 7.02 2 6 C1.01 5.01 0.02 4.02 -1 3 C-0.34 3 0.32 3 1 3 C0.67 2.01 0.34 1.02 0 0 Z " fill="#292929" transform="translate(691,615)"/>
<path d="M0 0 C0.66 0.33 1.32 0.66 2 1 C0.74948576 3.3447142 -0.34713696 4.73525087 -2.83984375 5.74609375 C-6.63239174 6.77015233 -9.18552877 7.18615548 -13 6 C-10.87959258 4.96966118 -8.75352092 3.95097146 -6.625 2.9375 C-5.44164062 2.36902344 -4.25828125 1.80054688 -3.0390625 1.21484375 C-2.03617187 0.81394531 -1.03328125 0.41304688 0 0 Z " fill="#1F1F1F" transform="translate(437,498)"/>
<path d="M0 0 C0.66 0 1.32 0 2 0 C2 0.99 2 1.98 2 3 C-1 5 -1 5 -4 6 C-4 5.01 -4 4.02 -4 3 C-4.61875 3.20625 -5.2375 3.4125 -5.875 3.625 C-6.57625 3.74875 -7.2775 3.8725 -8 4 C-8.66 3.34 -9.32 2.68 -10 2 C-6.33694766 1.25073929 -3.57644848 0.7619986 0 2 C0 1.34 0 0.68 0 0 Z " fill="#151515" transform="translate(383,234)"/>
<path d="M0 0 C0.99 0 1.98 0 3 0 C3.0270043 1.45823212 3.04639787 2.91660675 3.0625 4.375 C3.07410156 5.18710938 3.08570313 5.99921875 3.09765625 6.8359375 C3 9 3 9 2 11 C1.34 11 0.68 11 0 11 C0 7.37 0 3.74 0 0 Z " fill="#1E1E1E" transform="translate(435,129)"/>
<path d="M0 0 C0.99 0.33 1.98 0.66 3 1 C3.6875 3.0625 3.6875 3.0625 4 5 C1.69 5.33 -0.62 5.66 -3 6 C-3 4.35 -3 2.7 -3 1 C-2.01 1.33 -1.02 1.66 0 2 C0 1.34 0 0.68 0 0 Z " fill="#171717" transform="translate(229,608)"/>
<path d="M0 0 C0 3.23861295 -0.6250851 5.09740189 -2 8 C-2.99 8.495 -2.99 8.495 -4 9 C-4.40729228 11.32156597 -4.74438677 13.6568787 -5 16 C-5.33 16 -5.66 16 -6 16 C-6.27312207 10.62859937 -6.40444214 7.41316574 -3 3 C-1.3125 1.1875 -1.3125 1.1875 0 0 Z " fill="#353535" transform="translate(199,352)"/>
<path d="M0 0 C2 2 2 2 2 5 C-0.02290436 7.62977566 -1.7521174 8.49251834 -5 9 C-5.99 9 -6.98 9 -8 9 C-6.625 7.5 -6.625 7.5 -5 6 C-4.34 6 -3.68 6 -3 6 C-2.690625 5.38125 -2.38125 4.7625 -2.0625 4.125 C-1.375 2.75 -0.6875 1.375 0 0 Z " fill="#232323" transform="translate(277,335)"/>
<path d="M0 0 C1.32 0 2.64 0 4 0 C4.33 2.31 4.66 4.62 5 7 C4.01 6.67 3.02 6.34 2 6 C1.67 5.34 1.34 4.68 1 4 C0.34 4 -0.32 4 -1 4 C-0.67 2.68 -0.34 1.36 0 0 Z " fill="#141414" transform="translate(41,110)"/>
<path d="M0 0 C1.65 0.33 3.3 0.66 5 1 C4.67 2.98 4.34 4.96 4 7 C3.34 6.67 2.68 6.34 2 6 C-0.09821215 6.39938767 -0.09821215 6.39938767 -2 7 C-2 5 -2 5 -0.5 3.375 C-0.005 2.92125 0.49 2.4675 1 2 C0.67 1.34 0.34 0.68 0 0 Z " fill="#161616" transform="translate(517,577)"/>
<path d="M0 0 C0.99 1.32 1.98 2.64 3 4 C1.68 5.32 0.36 6.64 -1 8 C-1.66 7.34 -2.32 6.68 -3 6 C-3 3 -3 3 -1.5 1.3125 C-0.7575 0.6628125 -0.7575 0.6628125 0 0 Z " fill="#111111" transform="translate(422,472)"/>
<path d="M0 0 C-0.99 0.495 -0.99 0.495 -2 1 C-2 2.32 -2 3.64 -2 5 C-3.65 4.67 -5.3 4.34 -7 4 C-7 2.68 -7 1.36 -7 0 C-3.86650268 -1.04449911 -3.01031744 -0.93423645 0 0 Z " fill="#191919" transform="translate(409,467)"/>
<path d="M0 0 C0.66 0 1.32 0 2 0 C2.268125 0.61875 2.53625 1.2375 2.8125 1.875 C3.95556848 4.2995233 3.95556848 4.2995233 7 6 C5.35 7.32 3.7 8.64 2 10 C1.11064623 6.696686 0.53725895 3.37705625 0 0 Z " fill="#1A1A1A" transform="translate(168,353)"/>
<path d="M0 0 C1.32 0.33 2.64 0.66 4 1 C4 1.66 4 2.32 4 3 C3.01 3.33 2.02 3.66 1 4 C0.26676204 6.01508358 0.26676204 6.01508358 0 8 C-0.66 8 -1.32 8 -2 8 C-2.6875 6.25 -2.6875 6.25 -3 4 C-1.5625 1.75 -1.5625 1.75 0 0 Z " fill="#151515" transform="translate(485,120)"/>
<path d="M0 0 C1.07765625 0.03609375 2.1553125 0.0721875 3.265625 0.109375 C4.49539063 0.17898438 4.49539063 0.17898438 5.75 0.25 C5.75 0.58 5.75 0.91 5.75 1.25 C5.00234375 1.27578125 4.2546875 1.3015625 3.484375 1.328125 C-2.65692205 1.53686884 -2.65692205 1.53686884 -7.9375 4.3125 C-8.370625 4.951875 -8.80375 5.59125 -9.25 6.25 C-9.58 5.59 -9.91 4.93 -10.25 4.25 C-7.0246569 0.27312065 -5.05259733 -0.21967814 0 0 Z " fill="#3C3C3C" transform="translate(382.25,547.75)"/>
<path d="M0 0 C3 4 3 4 3 8 C0.5 9.75 0.5 9.75 -2 11 C-1.34 7.37 -0.68 3.74 0 0 Z " fill="#232323" transform="translate(154,434)"/>
<path d="M0 0 C0.99 0 1.98 0 3 0 C3 0.66 3 1.32 3 2 C3.99 2 4.98 2 6 2 C6.33 1.34 6.66 0.68 7 0 C7.33 0.99 7.66 1.98 8 3 C7.01 4.485 7.01 4.485 6 6 C4.02 5.01 2.04 4.02 0 3 C0 2.01 0 1.02 0 0 Z " fill="#191919" transform="translate(529,305)"/>
<path d="M0 0 C2.64 0.33 5.28 0.66 8 1 C8 1.99 8 2.98 8 4 C5.36 3.67 2.72 3.34 0 3 C0 2.01 0 1.02 0 0 Z " fill="#252525" transform="translate(146,196)"/>
<path d="M0 0 C0.66 0.33 1.32 0.66 2 1 C0.51559252 5.7006237 0.51559252 5.7006237 -1.9375 7.125 C-2.618125 7.41375 -3.29875 7.7025 -4 8 C-5.70921589 9.5412312 -5.70921589 9.5412312 -7 11 C-7.66 10.67 -8.32 10.34 -9 10 C-8.27683594 9.29423828 -8.27683594 9.29423828 -7.5390625 8.57421875 C-6.90742188 7.95160156 -6.27578125 7.32898438 -5.625 6.6875 C-4.68527344 5.76517578 -4.68527344 5.76517578 -3.7265625 4.82421875 C-1.81913393 2.91187472 -1.81913393 2.91187472 0 0 Z " fill="#272727" transform="translate(219,333)"/>
<path d="M0 0 C2.31 0.33 4.62 0.66 7 1 C7.33 1.99 7.66 2.98 8 4 C7.34 4.66 6.68 5.32 6 6 C6 5.34 6 4.68 6 4 C3.69 4 1.38 4 -1 4 C-0.67 2.68 -0.34 1.36 0 0 Z " fill="#191919" transform="translate(141,333)"/>
<path d="M0 0 C0.66 0.33 1.32 0.66 2 1 C1.6875 4.375 1.6875 4.375 1 8 C0.01 8.66 -0.98 9.32 -2 10 C-1.814375 9.2575 -1.62875 8.515 -1.4375 7.75 C-1.00796892 5.05009037 -1.14877026 3.55368923 -2 1 C-1.34 0.67 -0.68 0.34 0 0 Z " fill="#1D1D1D" transform="translate(243,270)"/>
<path d="M0 0 C0.99 0.33 1.98 0.66 3 1 C2.67 2.32 2.34 3.64 2 5 C0.02 5 -1.96 5 -4 5 C-3 2 -3 2 0 0 Z " fill="#2A2A2A" transform="translate(98,234)"/>
<path d="M0 0 C0.33 0.66 0.66 1.32 1 2 C-0.3125 4.625 -0.3125 4.625 -2 7 C-2.66 7 -3.32 7 -4 7 C-4.33 5.02 -4.66 3.04 -5 1 C-3.35 0.67 -1.7 0.34 0 0 Z " fill="#151515" transform="translate(453,713)"/>
<path d="M0 0 C2.475 0.99 2.475 0.99 5 2 C5 3.66666667 5 5.33333333 5 7 C3.02 5.68 1.04 4.36 -1 3 C-0.67 2.01 -0.34 1.02 0 0 Z " fill="#222222" transform="translate(272,497)"/>
<path d="M0 0 C0.66 1.32 1.32 2.64 2 4 C0.8553125 4.6496875 0.8553125 4.6496875 -0.3125 5.3125 C-2.58093768 6.73686785 -4.2199723 8.03260097 -6 10 C-6.66 9.67 -7.32 9.34 -8 9 C-5.36 6.03 -2.72 3.06 0 0 Z " fill="#1B1B1B" transform="translate(530,431)"/>
<path d="M0 0 C0.33 0 0.66 0 1 0 C1.66 2.97 2.32 5.94 3 9 C1.68 9.33 0.36 9.66 -1 10 C-2.46726798 6.18510326 -1.43336419 3.70988378 0 0 Z " fill="#353535" transform="translate(314,413)"/>
<path d="M0 0 C1.32 0.66 2.64 1.32 4 2 C3.67 2.99 3.34 3.98 3 5 C2.01 5 1.02 5 0 5 C-0.66 6.32 -1.32 7.64 -2 9 C-2.125 5.625 -2.125 5.625 -2 2 C-1.34 1.34 -0.68 0.68 0 0 Z " fill="#3E3E3E" transform="translate(294,377)"/>
<path d="M0 0 C1.67542976 0.28604898 3.34385343 0.61781233 5 1 C2.25 5.875 2.25 5.875 0 7 C-0.38133299 5.0085944 -0.71325582 3.00720923 -1 1 C-0.67 0.67 -0.34 0.34 0 0 Z M2 1 C3 3 3 3 3 3 Z " fill="#121212" transform="translate(230,345)"/>
<path d="M0 0 C0.33 1.32 0.66 2.64 1 4 C-2.33333333 5.33333333 -5.66666667 6.66666667 -9 8 C-6.14723863 5.06799526 -3.34920216 2.35684596 0 0 Z " fill="#212121" transform="translate(321,299)"/>
<path d="M0 0 C1.98 1.65 3.96 3.3 6 5 C5.67 5.66 5.34 6.32 5 7 C2.03 6.505 2.03 6.505 -1 6 C-1.042721 4.33388095 -1.04063832 2.66617115 -1 1 C-0.67 0.67 -0.34 0.34 0 0 Z " fill="#151515" transform="translate(475,274)"/>
<path d="M0 0 C0.99 0 1.98 0 3 0 C2.875 1.75 2.875 1.75 2 4 C-1.0625 6.25 -1.0625 6.25 -4 8 C-4 7.01 -4 6.02 -4 5 C-3.01 4.34 -2.02 3.68 -1 3 C-0.67 2.01 -0.34 1.02 0 0 Z " fill="#1C1C1C" transform="translate(572,621)"/>
<path d="M0 0 C3.625 -0.1875 3.625 -0.1875 7 0 C4.31158141 2.25245881 2.35358125 3.88213958 -1 5 C-1.33 4.34 -1.66 3.68 -2 3 C-1.34 2.01 -0.68 1.02 0 0 Z " fill="#141414" transform="translate(377,497)"/>
<path d="M0 0 C-1.32 0.33 -2.64 0.66 -4 1 C-4 1.99 -4 2.98 -4 4 C-5.98 4.99 -7.96 5.98 -10 7 C-8.07091409 1.3611335 -6.01450566 -0.32510841 0 0 Z " fill="#D9D9D9" transform="translate(139,361)"/>
<path d="M0 0 C1.32 0.33 2.64 0.66 4 1 C2.52307692 5.67692308 2.52307692 5.67692308 -0.125 7.3125 C-1.053125 7.6528125 -1.053125 7.6528125 -2 8 C-1.34 5.36 -0.68 2.72 0 0 Z " fill="#202020" transform="translate(601,312)"/>
<path d="M0 0 C0.66 0 1.32 0 2 0 C1.73958333 2.01822917 1.47916667 4.03645833 1.21875 6.0546875 C0.9627515 8.00498344 0.9627515 8.00498344 1 10 C0.01 10.33 -0.98 10.66 -2 11 C-2.28571429 3.57142857 -2.28571429 3.57142857 0 0 Z " fill="#181818" transform="translate(665,204)"/>
<path d="M0 0 C2.31 0.66 4.62 1.32 7 2 C7 2.33 7 2.66 7 3 C4.98177083 3.45572917 2.96354167 3.91145833 0.9453125 4.3671875 C-1.20719964 4.90474428 -1.20719964 4.90474428 -3 7 C-3 6.34 -3 5.68 -3 5 C-3.66 4.67 -4.32 4.34 -5 4 C-4.360625 3.71125 -3.72125 3.4225 -3.0625 3.125 C-0.84793921 2.17176549 -0.84793921 2.17176549 0 0 Z " fill="#1D1D1D" transform="translate(503,177)"/>
<path d="M0 0 C2.9375 0.75 2.9375 0.75 6 2 C6.875 4.125 6.875 4.125 7 6 C6.01 6 5.02 6 4 6 C3.34 5.01 2.68 4.02 2 3 C1.01 2.34 0.02 1.68 -1 1 C-0.67 0.67 -0.34 0.34 0 0 Z " fill="#171717" transform="translate(569,83)"/>
<path d="M0 0 C5.445 1.485 5.445 1.485 11 3 C11 3.33 11 3.66 11 4 C8.03 4 5.06 4 2 4 C1.34 2.68 0.68 1.36 0 0 Z " fill="#272727" transform="translate(573,79)"/>
<path d="M0 0 C0 0.66 0 1.32 0 2 C-0.66 2 -1.32 2 -2 2 C-2 2.66 -2 3.32 -2 4 C-1.01 4.33 -0.02 4.66 1 5 C-1.475 6.485 -1.475 6.485 -4 8 C-4 5.69 -4 3.38 -4 1 C-2 0 -2 0 0 0 Z " fill="#2D2D2D" transform="translate(4,609)"/>
<path d="M0 0 C0.99 0 1.98 0 3 0 C2.67 2.64 2.34 5.28 2 8 C1.01 7.67 0.02 7.34 -1 7 C-0.67 4.69 -0.34 2.38 0 0 Z " fill="#121212" transform="translate(533,588)"/>
<path d="M0 0 C1.67542976 0.28604898 3.34385343 0.61781233 5 1 C4.67 1.66 4.34 2.32 4 3 C3.01 3 2.02 3 1 3 C1 3.99 1 4.98 1 6 C0.34 6 -0.32 6 -1 6 C-1.042721 4.33388095 -1.04063832 2.66617115 -1 1 C-0.67 0.67 -0.34 0.34 0 0 Z " fill="#595959" transform="translate(74,508)"/>
<path d="M0 0 C2.16874252 0.50603992 3.99967627 0.99983813 6 2 C6 2.66 6 3.32 6 4 C5.34 4 4.68 4 4 4 C4 4.66 4 5.32 4 6 C2.68 5.34 1.36 4.68 0 4 C0 2.68 0 1.36 0 0 Z " fill="#3D3D3D" transform="translate(686,363)"/>
<path d="M0 0 C0.33 0.66 0.66 1.32 1 2 C3.01669827 3.13350534 3.01669827 3.13350534 5 4 C4.01 5.32 3.02 6.64 2 8 C0.4375 6.25 0.4375 6.25 -1 4 C-0.6875 1.75 -0.6875 1.75 0 0 Z " fill="#171717" transform="translate(234,337)"/>
<path d="M0 0 C0.66 0.66 1.32 1.32 2 2 C0.02 2.99 0.02 2.99 -2 4 C-1.34 2.68 -0.68 1.36 0 0 Z M-4 3 C-3.34 3.66 -2.68 4.32 -2 5 C-5 7 -5 7 -7.1875 6.625 C-7.785625 6.41875 -8.38375 6.2125 -9 6 C-7.35 5.01 -5.7 4.02 -4 3 Z " fill="#141414" transform="translate(237,312)"/>
<path d="M0 0 C0.66 0 1.32 0 2 0 C1.50168276 3.68754757 0.89932357 5.60490662 -2 8 C-2.66 7.67 -3.32 7.34 -4 7 C-4 5 -4 5 -2.5625 3.5 C-2.046875 3.005 -1.53125 2.51 -1 2 C-0.67 1.34 -0.34 0.68 0 0 Z " fill="#141414" transform="translate(186,283)"/>
<path d="M0 0 C-0.99 0.33 -1.98 0.66 -3 1 C-3.33 1.66 -3.66 2.32 -4 3 C-6.32156597 3.40729228 -8.6568787 3.74438677 -11 4 C-8.14317358 -0.28523962 -4.97227354 -1.84158279 0 0 Z " fill="#1C1C1C" transform="translate(378,283)"/>
<path d="M0 0 C0.66 0 1.32 0 2 0 C0.66666667 3.33333333 -0.66666667 6.66666667 -2 10 C-2.66 8.68 -3.32 7.36 -4 6 C-2.7260411 3.96166576 -1.38938077 1.96147874 0 0 Z " fill="#1B1B1B" transform="translate(309,144)"/>
<path d="M0 0 C0.99 0 1.98 0 3 0 C3 0.66 3 1.32 3 2 C3.66 2 4.32 2 5 2 C5 3.32 5 4.64 5 6 C4.01 6 3.02 6 2 6 C2 5.01 2 4.02 2 3 C1.34 3 0.68 3 0 3 C0 2.01 0 1.02 0 0 Z " fill="#1B1B1B" transform="translate(181,697)"/>
<path d="M0 0 C0.99 0 1.98 0 3 0 C3.33 0.66 3.66 1.32 4 2 C4.33 1.34 4.66 0.68 5 0 C5.66 0 6.32 0 7 0 C6.67 1.32 6.34 2.64 6 4 C3.03 3.505 3.03 3.505 0 3 C0 2.01 0 1.02 0 0 Z " fill="#171717" transform="translate(28,691)"/>
<path d="M0 0 C0.66 0 1.32 0 2 0 C1.40312566 3.34249629 0.26396123 5.46436342 -2 8 C-2.66 8 -3.32 8 -4 8 C-3.67 6.35 -3.34 4.7 -3 3 C-2.01 3 -1.02 3 0 3 C0 2.01 0 1.02 0 0 Z " fill="#131313" transform="translate(179,656)"/>
<path d="M0 0 C0.99 0.33 1.98 0.66 3 1 C3.6875 3.0625 3.6875 3.0625 4 5 C4.66 5 5.32 5 6 5 C6 5.66 6 6.32 6 7 C3.5625 6.3125 3.5625 6.3125 1 5 C0.1875 2.375 0.1875 2.375 0 0 Z " fill="#181818" transform="translate(685,616)"/>
<path d="M0 0 C0.66 0 1.32 0 2 0 C1.75 2.875 1.75 2.875 1 6 C-1.0625 7.375 -1.0625 7.375 -3 8 C-2.45276317 4.62537285 -1.9451 2.91765 0 0 Z " fill="#191919" transform="translate(45,600)"/>
<path d="M0 0 C0.99 0 1.98 0 3 0 C3.144375 0.598125 3.28875 1.19625 3.4375 1.8125 C3.8872439 3.56150404 4.42892341 5.28677023 5 7 C2.525 6.01 2.525 6.01 0 5 C0 3.33333333 0 1.66666667 0 0 Z " fill="#1E1E1E" transform="translate(240,579)"/>
<path d="M0 0 C0.99 0 1.98 0 3 0 C3 0.99 3 1.98 3 3 C0.69 3.66 -1.62 4.32 -4 5 C-4 4.01 -4 3.02 -4 2 C-3.34 1.67 -2.68 1.34 -2 1 C-1.34 1.33 -0.68 1.66 0 2 C0 1.34 0 0.68 0 0 Z " fill="#2B2B2B" transform="translate(605,563)"/>
<path d="M0 0 C0.99 0 1.98 0 3 0 C2.625 1.9375 2.625 1.9375 2 4 C1.01 4.495 1.01 4.495 0 5 C-0.33 4.01 -0.66 3.02 -1 2 C-0.67 1.34 -0.34 0.68 0 0 Z M-2 4 C-1.34 4.66 -0.68 5.32 0 6 C-1.32 6.33 -2.64 6.66 -4 7 C-3.34 6.01 -2.68 5.02 -2 4 Z " fill="#131313" transform="translate(260,432)"/>
<path d="M0 0 C0.66 0 1.32 0 2 0 C1.67 1.32 1.34 2.64 1 4 C0.01 4 -0.98 4 -2 4 C-2 4.99 -2 5.98 -2 7 C-2.99 7 -3.98 7 -5 7 C-4.6875 5.0625 -4.6875 5.0625 -4 3 C-3.01 2.67 -2.02 2.34 -1 2 C-0.67 1.34 -0.34 0.68 0 0 Z " fill="#131313" transform="translate(678,348)"/>
<path d="M0 0 C2.625 0.6875 2.625 0.6875 5 2 C5.33 2.99 5.66 3.98 6 5 C3.03 4.01 0.06 3.02 -3 2 C-2.01 1.34 -1.02 0.68 0 0 Z " fill="#272727" transform="translate(455,188)"/>
<path d="M0 0 C1.67542976 0.28604898 3.34385343 0.61781233 5 1 C4.67 2.32 4.34 3.64 4 5 C2.0625 4.6875 2.0625 4.6875 0 4 C-0.33 3.01 -0.66 2.02 -1 1 C-0.67 0.67 -0.34 0.34 0 0 Z " fill="#2C2C2C" transform="translate(398,120)"/>
<path d="M0 0 C0.33 0.99 0.66 1.98 1 3 C1.66 3 2.32 3 3 3 C3 3.66 3 4.32 3 5 C4.32 5.66 5.64 6.32 7 7 C6.01 7.33 5.02 7.66 4 8 C1.8125 6.875 1.8125 6.875 0 5 C-0.25 2.3125 -0.25 2.3125 0 0 Z " fill="#242424" transform="translate(519,680)"/>
<path d="M0 0 C0.99 0 1.98 0 3 0 C3 0.66 3 1.32 3 2 C3.99 2 4.98 2 6 2 C5.67 3.32 5.34 4.64 5 6 C4.34 6 3.68 6 3 6 C3 5.01 3 4.02 3 3 C2.01 2.67 1.02 2.34 0 2 C0 1.34 0 0.68 0 0 Z " fill="#454545" transform="translate(577,588)"/>
<path d="M0 0 C1.32 0.99 2.64 1.98 4 3 C3.67 3.66 3.34 4.32 3 5 C0.4375 5.625 0.4375 5.625 -2 6 C-1.49396008 3.83125748 -1.00016187 2.00032373 0 0 Z " fill="#1A1A1A" transform="translate(276,539)"/>
<path d="M0 0 C0.66 0.33 1.32 0.66 2 1 C0.26440562 4.057952 -1.38472619 6.63379989 -4 9 C-4.33 7.35 -4.66 5.7 -5 4 C-3.35 2.68 -1.7 1.36 0 0 Z " fill="#1E1E1E" transform="translate(455,485)"/>
<path d="M0 0 C0.66 0.99 1.32 1.98 2 3 C-0.31 5.31 -2.62 7.62 -5 10 C-5.66 9.67 -6.32 9.34 -7 9 C-6.57847656 8.51789063 -6.15695312 8.03578125 -5.72265625 7.5390625 C-5.17480469 6.90742188 -4.62695312 6.27578125 -4.0625 5.625 C-3.51722656 4.99851562 -2.97195313 4.37203125 -2.41015625 3.7265625 C-0.93041376 2.04367666 -0.93041376 2.04367666 0 0 Z " fill="#282828" transform="translate(538,421)"/>
<path d="M0 0 C-0.375 1.9375 -0.375 1.9375 -1 4 C-1.99 4.495 -1.99 4.495 -3 5 C-3 4.34 -3 3.68 -3 3 C-3.99 3 -4.98 3 -6 3 C-6 2.34 -6 1.68 -6 1 C-3 0 -3 0 0 0 Z " fill="#141414" transform="translate(638,380)"/>
<path d="M0 0 C0.99 0.33 1.98 0.66 3 1 C3 3 3 5 3 7 C2.01 7 1.02 7 0 7 C-1.125 2.25 -1.125 2.25 0 0 Z " fill="#252525" transform="translate(676,359)"/>
<path d="M0 0 C0.28875 0.61875 0.5775 1.2375 0.875 1.875 C1.93720042 4.13325765 1.93720042 4.13325765 4 6 C2.35 7.32 0.7 8.64 -1 10 C-1.66 9.67 -2.32 9.34 -3 9 C-2.34 8.34 -1.68 7.68 -1 7 C-0.59952556 4.67724823 -0.2602896 2.34260643 0 0 Z " fill="#2B2B2B" transform="translate(522,199)"/>
<path d="M0 0 C1.485 0.99 1.485 0.99 3 2 C3 2.99 3 3.98 3 5 C1.68 5.33 0.36 5.66 -1 6 C-1.042721 4.33388095 -1.04063832 2.66617115 -1 1 C-0.67 0.67 -0.34 0.34 0 0 Z " fill="#101010" transform="translate(675,18)"/>
<path d="M0 0 C1.32 1.65 2.64 3.3 4 5 C2.02 5.99 2.02 5.99 0 7 C-0.66 6.01 -1.32 5.02 -2 4 C-1.34 2.68 -0.68 1.36 0 0 Z " fill="#191919" transform="translate(242,521)"/>
<path d="M0 0 C2.97 0.495 2.97 0.495 6 1 C6 1.99 6 2.98 6 4 C4.02 3.34 2.04 2.68 0 2 C0 1.34 0 0.68 0 0 Z " fill="#161616" transform="translate(564,454)"/>
<path d="M0 0 C0.99 0 1.98 0 3 0 C3.33 0.99 3.66 1.98 4 3 C3.01 4.485 3.01 4.485 2 6 C1.67 5.34 1.34 4.68 1 4 C0.34 4.66 -0.32 5.32 -1 6 C-1 2 -1 2 0 0 Z " fill="#121212" transform="translate(524,352)"/>
<path d="M0 0 C0 0.99 0 1.98 0 3 C-3.05263664 3.98120464 -4.94736336 3.98120464 -8 3 C-8 2.34 -8 1.68 -8 1 C-5.29889598 -0.35055201 -2.99210994 0 0 0 Z " fill="#121212" transform="translate(323,304)"/>
<path d="M0 0 C0.99 0 1.98 0 3 0 C3 0.66 3 1.32 3 2 C3.66 2 4.32 2 5 2 C5 2.99 5 3.98 5 5 C3.68 5 2.36 5 1 5 C0.67 3.35 0.34 1.7 0 0 Z " fill="#191919" transform="translate(205,295)"/>
<path d="M0 0 C1.32 0 2.64 0 4 0 C4 0.99 4 1.98 4 3 C2.02 3.66 0.04 4.32 -2 5 C-1.125 1.125 -1.125 1.125 0 0 Z " fill="#131313" transform="translate(290,196)"/>
<path d="M0 0 C0.66 0.33 1.32 0.66 2 1 C1.01 2.485 1.01 2.485 0 4 C0.99 4.33 1.98 4.66 3 5 C3 5.66 3 6.32 3 7 C3.66 7.33 4.32 7.66 5 8 C3.68 8 2.36 8 1 8 C-1 5 -1 5 -0.625 2.3125 C-0.41875 1.549375 -0.2125 0.78625 0 0 Z " fill="#131313" transform="translate(25,112)"/>
<path d="M0 0 C0.66 0 1.32 0 2 0 C2 1.98 2 3.96 2 6 C1.01 6 0.02 6 -1 6 C-1.042721 4.33388095 -1.04063832 2.66617115 -1 1 C-0.67 0.67 -0.34 0.34 0 0 Z " fill="#151515" transform="translate(222,680)"/>
<path d="M0 0 C0.99 0 1.98 0 3 0 C3 0.66 3 1.32 3 2 C3.66 2 4.32 2 5 2 C5 2.99 5 3.98 5 5 C4.01 5 3.02 5 2 5 C2 4.34 2 3.68 2 3 C1.34 3 0.68 3 0 3 C0 2.01 0 1.02 0 0 Z " fill="#252525" transform="translate(297,656)"/>
<path d="M0 0 C1.32 0.66 2.64 1.32 4 2 C3.34 3.65 2.68 5.3 2 7 C-0.13324818 4.86675182 -0.53238345 3.8992226 -1 1 C-0.67 0.67 -0.34 0.34 0 0 Z " fill="#161616" transform="translate(226,575)"/>
<path d="M0 0 C0.66 0 1.32 0 2 0 C2 0.99 2 1.98 2 3 C3.32 3.33 4.64 3.66 6 4 C3.69 4.33 1.38 4.66 -1 5 C-0.67 3.35 -0.34 1.7 0 0 Z " fill="#232323" transform="translate(366,530)"/>
<path d="M0 0 C0.33 1.32 0.66 2.64 1 4 C-0.65 4.66 -2.3 5.32 -4 6 C-3.67 4.35 -3.34 2.7 -3 1 C-2.01 1.33 -1.02 1.66 0 2 C0 1.34 0 0.68 0 0 Z " fill="#0D0D0D" transform="translate(446,516)"/>
<path d="M0 0 C1.9375 0.375 1.9375 0.375 4 1 C4.33 1.66 4.66 2.32 5 3 C4.67 3.66 4.34 4.32 4 5 C1.525 4.01 1.525 4.01 -1 3 C-0.67 2.01 -0.34 1.02 0 0 Z " fill="#0E0E0E" transform="translate(228,499)"/>
<path d="M0 0 C0.66 0 1.32 0 2 0 C1.67 2.31 1.34 4.62 1 7 C0.34 6.34 -0.32 5.68 -1 5 C-1.99 5.495 -1.99 5.495 -3 6 C-1.125 1.125 -1.125 1.125 0 0 Z " fill="#1A1A1A" transform="translate(559,395)"/>
<path d="M0 0 C1.32 0.33 2.64 0.66 4 1 C3.01 2.485 3.01 2.485 2 4 C0.33333333 4 -1.33333333 4 -3 4 C-2.01 2.68 -1.02 1.36 0 0 Z " fill="#131313" transform="translate(467,376)"/>
<path d="M0 0 C1.32 0 2.64 0 4 0 C3.67 1.65 3.34 3.3 3 5 C1.68 4.34 0.36 3.68 -1 3 C-0.67 2.01 -0.34 1.02 0 0 Z " fill="#242424" transform="translate(344,375)"/>
<path d="M0 0 C1.32 0.33 2.64 0.66 4 1 C2.35 2.65 0.7 4.3 -1 6 C-1.33 5.34 -1.66 4.68 -2 4 C-1.0625 1.875 -1.0625 1.875 0 0 Z " fill="#1F1F1F" transform="translate(700,366)"/>
<path d="M0 0 C1.32 0.66 2.64 1.32 4 2 C3.6875 3.875 3.6875 3.875 3 6 C2.01 6.66 1.02 7.32 0 8 C0 7.01 0 6.02 0 5 C0.66 5 1.32 5 2 5 C1.34 3.35 0.68 1.7 0 0 Z " fill="#161616" transform="translate(272,300)"/>
<path d="M0 0 C2.475 0.495 2.475 0.495 5 1 C5 1.99 5 2.98 5 4 C3.35 4.33 1.7 4.66 0 5 C0 3.35 0 1.7 0 0 Z " fill="#141414" transform="translate(535,283)"/>
<path d="M0 0 C0.66 0.33 1.32 0.66 2 1 C0.95125002 3.62187494 0.35068687 4.79371361 -2.125 6.25 C-2.74375 6.4975 -3.3625 6.745 -4 7 C-2.92598892 4.08482708 -2.22189824 2.22189824 0 0 Z " fill="#222222" transform="translate(228,274)"/>
<path d="M0 0 C0.33 0.66 0.66 1.32 1 2 C3.02463255 2.65213292 3.02463255 2.65213292 5 3 C-0.625 4.125 -0.625 4.125 -4 3 C-3.34 2.34 -2.68 1.68 -2 1 C-1.34 1.33 -0.68 1.66 0 2 C0 1.34 0 0.68 0 0 Z " fill="#151515" transform="translate(295,261)"/>
<path d="M0 0 C1.32 0.66 2.64 1.32 4 2 C3.34 2 2.68 2 2 2 C1.34 3.32 0.68 4.64 0 6 C-0.99 5.67 -1.98 5.34 -3 5 C-2.01 4.67 -1.02 4.34 0 4 C-0.33 3.01 -0.66 2.02 -1 1 C-0.67 0.67 -0.34 0.34 0 0 Z " fill="#1F1F1F" transform="translate(398,234)"/>
<path d="M0 0 C1.125 3.75 1.125 3.75 0 6 C-0.66 6 -1.32 6 -2 6 C-2.33 4.68 -2.66 3.36 -3 2 C-2.01 1.34 -1.02 0.68 0 0 Z M2 2 C2.33 2.66 2.66 3.32 3 4 C2.34 3.67 1.68 3.34 1 3 C1.33 2.67 1.66 2.34 2 2 Z " fill="#0D0D0D" transform="translate(485,215)"/>
<path d="M0 0 C1.65 0 3.3 0 5 0 C5 1.32 5 2.64 5 4 C3.68 4 2.36 4 1 4 C0.67 2.68 0.34 1.36 0 0 Z " fill="#121212" transform="translate(712,172)"/>
<path d="M0 0 C0.99 0.33 1.98 0.66 3 1 C2.01 1.495 2.01 1.495 1 2 C1.33 3.32 1.66 4.64 2 6 C1.01 6 0.02 6 -1 6 C-1.33 4.68 -1.66 3.36 -2 2 C-1.34 2 -0.68 2 0 2 C0 1.34 0 0.68 0 0 Z " fill="#242424" transform="translate(129,172)"/>
<path d="M0 0 C1.04449911 3.13349732 0.93423645 3.98968256 0 7 C-0.99 6.67 -1.98 6.34 -3 6 C-2.625 3.5625 -2.625 3.5625 -2 1 C-1.34 0.67 -0.68 0.34 0 0 Z " fill="#111111" transform="translate(195,113)"/>
<path d="M0 0 C0.66 0 1.32 0 2 0 C1.67 2.64 1.34 5.28 1 8 C0.34 8 -0.32 8 -1 8 C-1.33 6.02 -1.66 4.04 -2 2 C-1.34 2 -0.68 2 0 2 C0 1.34 0 0.68 0 0 Z " fill="#171717" transform="translate(687,33)"/>
</svg>
